M48
INCH,TZ
T1C0.012
T2C0.024
T3C0.031
T4C0.039
T5C0.040
T6C0.059
T7C0.059
T8C0.067
%
G90
G05
T1
X1.14Y-0.83
X1.58Y-0.6
X1.66Y-2.21
X1.69Y-3.77
X2.03Y-1.2
X2.48Y-0.85
X2.69Y-1.05
X2.81Y-1.26
X3.07Y-2.21
X3.12Y-1.24
X3.13Y-3.76
X4.0216Y-1.3244
X4.03Y-0.71
X4.03Y-0.81
X4.63Y-2.25
X4.63Y-3.74
X5.1304Y-1.2188
T3
X1.2093Y-1.2664
X1.2795Y-1.1026
X1.2795Y-1.2313
X1.338Y-1.3015
X1.3731Y-0.6814
X1.5837Y-4.6243
X1.7358Y-1.3015
X1.74Y-0.9505
X1.8015Y-0.603
X1.8054Y-0.7218
X1.8114Y-1.4124
X1.88Y-0.61
X1.88Y-0.67
X1.9932Y-0.9622
X2.04Y-0.78
X2.05Y-0.61
X2.0817Y-0.9774
X2.11Y-0.72
X2.12Y-1.11
X2.1312Y-1.0521
X2.14Y-0.78
X2.2Y-0.74
X2.2416Y-1.419
X2.2506Y-1.11
X2.4027Y-4.5775
X2.4454Y-0.5652
X2.45Y-0.66
X2.4612Y-2.1907
X2.492Y-1.4736
X2.9717Y-0.9973
X3.0534Y-1.5898
X3.0932Y-1.507
X3.0952Y-1.5536
X3.11Y-0.6
X3.1281Y-1.6291
X3.1749Y-2.3779
X3.2994Y-0.663
X3.3384Y-0.8908
X3.34Y-0.6
X3.3855Y-1.3015
X3.4014Y-0.6624
X3.4714Y-1.4464
X3.4716Y-1.5544
X3.5446Y-1.4488
X3.5448Y-1.5576
X3.8769Y-3.1267
X3.9237Y-3.8755
X3.9705Y-2.3194
X4.14Y-0.96
X4.146Y-1.2664
X4.24Y-0.67
X4.24Y-0.76
X4.24Y-0.85
X4.2512Y-1.2089
X4.2513Y-1.4536
X4.2524Y-1.2664
X4.5204Y-1.4536
X4.7243Y-1.1233
T4
X1.1039Y-2.2149
X1.1039Y-2.9649
X1.1039Y-3.7149
X1.1039Y-4.4649
X1.1039Y-5.2149
X1.4039Y-2.2149
X1.4039Y-2.9649
X1.4039Y-3.7149
X1.4039Y-4.4649
X1.4039Y-5.2149
X1.8539Y-2.2149
X1.8539Y-2.9649
X1.8539Y-3.7149
X1.8539Y-4.4649
X1.8539Y-5.2149
X2.1539Y-2.2149
X2.1539Y-2.9649
X2.1539Y-3.7149
X2.1539Y-4.4649
X2.1539Y-5.2149
X2.6039Y-2.2149
X2.6039Y-2.9649
X2.6039Y-3.7149
X2.6039Y-4.4649
X2.6039Y-5.2149
X2.9039Y-2.2149
X2.9039Y-2.9649
X2.9039Y-3.7149
X2.9039Y-4.4649
X2.9039Y-5.2149
X3.3539Y-2.2149
X3.3539Y-2.9649
X3.3539Y-3.7149
X3.3539Y-4.4649
X3.3539Y-5.2149
X3.6539Y-2.2149
X3.6539Y-2.9649
X3.6539Y-3.7149
X3.6539Y-4.4649
X3.6539Y-5.2149
X4.1039Y-2.2149
X4.1039Y-2.9649
X4.1039Y-3.7149
X4.1039Y-4.4649
X4.1039Y-5.2149
X4.4039Y-2.2149
X4.4039Y-2.9649
X4.4039Y-3.7149
X4.4039Y-4.4649
X4.4039Y-5.2149
X4.8539Y-2.2149
X4.8539Y-2.9649
X4.8539Y-3.7149
X4.8539Y-4.4649
X4.8539Y-5.2149
X5.1539Y-2.2149
X5.1539Y-2.9649
X5.1539Y-3.7149
X5.1539Y-4.4649
X5.1539Y-5.2149
T5
X1.0157Y-0.9622
X1.0157Y-1.0622
X1.0157Y-1.1622
X1.0157Y-1.2622
X1.0157Y-1.3622
X1.1157Y-0.9622
X1.1157Y-1.0622
X1.1157Y-1.1622
X1.1157Y-1.2622
X1.1157Y-1.3622
T6
X1.1039Y-1.8102
X1.1039Y-2.5602
X1.1039Y-3.3102
X1.1039Y-4.0602
X1.1039Y-4.8102
X1.1539Y-1.7102
X1.1539Y-2.4602
X1.1539Y-3.2102
X1.1539Y-3.9602
X1.1539Y-4.7102
X1.3539Y-1.7102
X1.3539Y-2.4602
X1.3539Y-3.2102
X1.3539Y-3.9602
X1.3539Y-4.7102
X1.4039Y-1.8102
X1.4039Y-2.5602
X1.4039Y-3.3102
X1.4039Y-4.0602
X1.4039Y-4.8102
X1.8539Y-1.8102
X1.8539Y-2.5602
X1.8539Y-3.3102
X1.8539Y-4.0602
X1.8539Y-4.8102
X1.9039Y-1.7102
X1.9039Y-2.4602
X1.9039Y-3.2102
X1.9039Y-3.9602
X1.9039Y-4.7102
X2.1039Y-1.7102
X2.1039Y-2.4602
X2.1039Y-3.2102
X2.1039Y-3.9602
X2.1039Y-4.7102
X2.1539Y-1.8102
X2.1539Y-2.5602
X2.1539Y-3.3102
X2.1539Y-4.0602
X2.1539Y-4.8102
X2.6039Y-1.8102
X2.6039Y-2.5602
X2.6039Y-3.3102
X2.6039Y-4.0602
X2.6039Y-4.8102
X2.6539Y-1.7102
X2.6539Y-2.4602
X2.6539Y-3.2102
X2.6539Y-3.9602
X2.6539Y-4.7102
X2.8539Y-1.7102
X2.8539Y-2.4602
X2.8539Y-3.2102
X2.8539Y-3.9602
X2.8539Y-4.7102
X2.9039Y-1.8102
X2.9039Y-2.5602
X2.9039Y-3.3102
X2.9039Y-4.0602
X2.9039Y-4.8102
X3.3539Y-1.8102
X3.3539Y-2.5602
X3.3539Y-3.3102
X3.3539Y-4.0602
X3.3539Y-4.8102
X3.4039Y-1.7102
X3.4039Y-2.4602
X3.4039Y-3.2102
X3.4039Y-3.9602
X3.4039Y-4.7102
X3.6039Y-1.7102
X3.6039Y-2.4602
X3.6039Y-3.2102
X3.6039Y-3.9602
X3.6039Y-4.7102
X3.6539Y-1.8102
X3.6539Y-2.5602
X3.6539Y-3.3102
X3.6539Y-4.0602
X3.6539Y-4.8102
X4.1039Y-1.8102
X4.1039Y-2.5602
X4.1039Y-3.3102
X4.1039Y-4.0602
X4.1039Y-4.8102
X4.1539Y-1.7102
X4.1539Y-2.4602
X4.1539Y-3.2102
X4.1539Y-3.9602
X4.1539Y-4.7102
X4.3539Y-1.7102
X4.3539Y-2.4602
X4.3539Y-3.2102
X4.3539Y-3.9602
X4.3539Y-4.7102
X4.4039Y-1.8102
X4.4039Y-2.5602
X4.4039Y-3.3102
X4.4039Y-4.0602
X4.4039Y-4.8102
X4.8539Y-1.8102
X4.8539Y-2.5602
X4.8539Y-3.3102
X4.8539Y-4.0602
X4.8539Y-4.8102
X4.9039Y-1.7102
X4.9039Y-2.4602
X4.9039Y-3.2102
X4.9039Y-3.9602
X4.9039Y-4.7102
X5.1039Y-1.7102
X5.1039Y-2.4602
X5.1039Y-3.2102
X5.1039Y-3.9602
X5.1039Y-4.7102
X5.1539Y-1.8102
X5.1539Y-2.5602
X5.1539Y-3.3102
X5.1539Y-4.0602
X5.1539Y-4.8102
T7
X0.91Y-0.66
X0.91Y-5.33
X3.13Y-2.98
X5.38Y-0.66
X5.38Y-5.33
T8
X1.0539Y-1.9102
X1.0539Y-2.6602
X1.0539Y-3.4102
X1.0539Y-4.1602
X1.0539Y-4.9102
X1.4539Y-1.9102
X1.4539Y-2.6602
X1.4539Y-3.4102
X1.4539Y-4.1602
X1.4539Y-4.9102
X1.8039Y-1.9102
X1.8039Y-2.6602
X1.8039Y-3.4102
X1.8039Y-4.1602
X1.8039Y-4.9102
X2.2039Y-1.9102
X2.2039Y-2.6602
X2.2039Y-3.4102
X2.2039Y-4.1602
X2.2039Y-4.9102
X2.5539Y-1.9102
X2.5539Y-2.6602
X2.5539Y-3.4102
X2.5539Y-4.1602
X2.5539Y-4.9102
X2.9539Y-1.9102
X2.9539Y-2.6602
X2.9539Y-3.4102
X2.9539Y-4.1602
X2.9539Y-4.9102
X3.3039Y-1.9102
X3.3039Y-2.6602
X3.3039Y-3.4102
X3.3039Y-4.1602
X3.3039Y-4.9102
X3.7039Y-1.9102
X3.7039Y-2.6602
X3.7039Y-3.4102
X3.7039Y-4.1602
X3.7039Y-4.9102
X4.0539Y-1.9102
X4.0539Y-2.6602
X4.0539Y-3.4102
X4.0539Y-4.1602
X4.0539Y-4.9102
X4.4539Y-1.9102
X4.4539Y-2.6602
X4.4539Y-3.4102
X4.4539Y-4.1602
X4.4539Y-4.9102
X4.8039Y-1.9102
X4.8039Y-2.6602
X4.8039Y-3.4102
X4.8039Y-4.1602
X4.8039Y-4.9102
X5.2039Y-1.9102
X5.2039Y-2.6602
X5.2039Y-3.4102
X5.2039Y-4.1602
X5.2039Y-4.9102
T2
X3.3148Y-0.7154G85X3.3148Y-0.7154
G05
X3.488Y-0.7154G85X3.488Y-0.7154
G05
X4.8134Y-0.7164G85X4.8134Y-0.7164
G05
X4.8134Y-0.7164G85X4.8134Y-0.7164
G05
X4.9866Y-0.7164G85X4.9866Y-0.7164
G05
X4.9866Y-0.7164G85X4.9866Y-0.7164
G05
T0
M30
