G04 #@! TF.FileFunction,Legend,Top*
%FSLAX46Y46*%
G04 Gerber Fmt 4.6, Leading zero omitted, Abs format (unit mm)*
G04 Created by KiCad (PCBNEW 4.0.3-stable) date 08/13/16 00:05:14*
%MOMM*%
%LPD*%
G01*
G04 APERTURE LIST*
%ADD10C,0.100000*%
%ADD11C,0.150000*%
%ADD12C,0.381000*%
%ADD13C,0.050000*%
%ADD14C,0.254000*%
G04 APERTURE END LIST*
D10*
D11*
X81788000Y-75692000D02*
G75*
G03X81788000Y-75692000I-2286000J0D01*
G01*
X25400000Y-135382000D02*
G75*
G03X25400000Y-135382000I-2286000J0D01*
G01*
X138938000Y-135382000D02*
G75*
G03X138938000Y-135382000I-2286000J0D01*
G01*
X25400000Y-16764000D02*
G75*
G03X25400000Y-16764000I-2286000J0D01*
G01*
D12*
X25499354Y-118368500D02*
X27277354Y-118368500D01*
X36421354Y-118368500D02*
X38199354Y-118368500D01*
X38199354Y-118368500D02*
X38199354Y-120146500D01*
X38199354Y-129290500D02*
X38199354Y-131068500D01*
X38199354Y-131068500D02*
X36421354Y-131068500D01*
X27277354Y-131068500D02*
X25499354Y-131068500D01*
X25499354Y-131068500D02*
X25499354Y-129290500D01*
X25499354Y-120146500D02*
X25499354Y-118368500D01*
X44549435Y-118368500D02*
X46327435Y-118368500D01*
X55471435Y-118368500D02*
X57249435Y-118368500D01*
X57249435Y-118368500D02*
X57249435Y-120146500D01*
X57249435Y-129290500D02*
X57249435Y-131068500D01*
X57249435Y-131068500D02*
X55471435Y-131068500D01*
X46327435Y-131068500D02*
X44549435Y-131068500D01*
X44549435Y-131068500D02*
X44549435Y-129290500D01*
X44549435Y-120146500D02*
X44549435Y-118368500D01*
X63599517Y-118368500D02*
X65377517Y-118368500D01*
X74521517Y-118368500D02*
X76299517Y-118368500D01*
X76299517Y-118368500D02*
X76299517Y-120146500D01*
X76299517Y-129290500D02*
X76299517Y-131068500D01*
X76299517Y-131068500D02*
X74521517Y-131068500D01*
X65377517Y-131068500D02*
X63599517Y-131068500D01*
X63599517Y-131068500D02*
X63599517Y-129290500D01*
X63599517Y-120146500D02*
X63599517Y-118368500D01*
X82649598Y-118368500D02*
X84427598Y-118368500D01*
X93571598Y-118368500D02*
X95349598Y-118368500D01*
X95349598Y-118368500D02*
X95349598Y-120146500D01*
X95349598Y-129290500D02*
X95349598Y-131068500D01*
X95349598Y-131068500D02*
X93571598Y-131068500D01*
X84427598Y-131068500D02*
X82649598Y-131068500D01*
X82649598Y-131068500D02*
X82649598Y-129290500D01*
X82649598Y-120146500D02*
X82649598Y-118368500D01*
X101699679Y-118368500D02*
X103477679Y-118368500D01*
X112621679Y-118368500D02*
X114399679Y-118368500D01*
X114399679Y-118368500D02*
X114399679Y-120146500D01*
X114399679Y-129290500D02*
X114399679Y-131068500D01*
X114399679Y-131068500D02*
X112621679Y-131068500D01*
X103477679Y-131068500D02*
X101699679Y-131068500D01*
X101699679Y-131068500D02*
X101699679Y-129290500D01*
X101699679Y-120146500D02*
X101699679Y-118368500D01*
X25499354Y-99318419D02*
X27277354Y-99318419D01*
X36421354Y-99318419D02*
X38199354Y-99318419D01*
X38199354Y-99318419D02*
X38199354Y-101096419D01*
X38199354Y-110240419D02*
X38199354Y-112018419D01*
X38199354Y-112018419D02*
X36421354Y-112018419D01*
X27277354Y-112018419D02*
X25499354Y-112018419D01*
X25499354Y-112018419D02*
X25499354Y-110240419D01*
X25499354Y-101096419D02*
X25499354Y-99318419D01*
X44549435Y-99318419D02*
X46327435Y-99318419D01*
X55471435Y-99318419D02*
X57249435Y-99318419D01*
X57249435Y-99318419D02*
X57249435Y-101096419D01*
X57249435Y-110240419D02*
X57249435Y-112018419D01*
X57249435Y-112018419D02*
X55471435Y-112018419D01*
X46327435Y-112018419D02*
X44549435Y-112018419D01*
X44549435Y-112018419D02*
X44549435Y-110240419D01*
X44549435Y-101096419D02*
X44549435Y-99318419D01*
X63599517Y-99318419D02*
X65377517Y-99318419D01*
X74521517Y-99318419D02*
X76299517Y-99318419D01*
X76299517Y-99318419D02*
X76299517Y-101096419D01*
X76299517Y-110240419D02*
X76299517Y-112018419D01*
X76299517Y-112018419D02*
X74521517Y-112018419D01*
X65377517Y-112018419D02*
X63599517Y-112018419D01*
X63599517Y-112018419D02*
X63599517Y-110240419D01*
X63599517Y-101096419D02*
X63599517Y-99318419D01*
X82649598Y-99318419D02*
X84427598Y-99318419D01*
X93571598Y-99318419D02*
X95349598Y-99318419D01*
X95349598Y-99318419D02*
X95349598Y-101096419D01*
X95349598Y-110240419D02*
X95349598Y-112018419D01*
X95349598Y-112018419D02*
X93571598Y-112018419D01*
X84427598Y-112018419D02*
X82649598Y-112018419D01*
X82649598Y-112018419D02*
X82649598Y-110240419D01*
X82649598Y-101096419D02*
X82649598Y-99318419D01*
X101699679Y-99318419D02*
X103477679Y-99318419D01*
X112621679Y-99318419D02*
X114399679Y-99318419D01*
X114399679Y-99318419D02*
X114399679Y-101096419D01*
X114399679Y-110240419D02*
X114399679Y-112018419D01*
X114399679Y-112018419D02*
X112621679Y-112018419D01*
X103477679Y-112018419D02*
X101699679Y-112018419D01*
X101699679Y-112018419D02*
X101699679Y-110240419D01*
X101699679Y-101096419D02*
X101699679Y-99318419D01*
X25499354Y-80268338D02*
X27277354Y-80268338D01*
X36421354Y-80268338D02*
X38199354Y-80268338D01*
X38199354Y-80268338D02*
X38199354Y-82046338D01*
X38199354Y-91190338D02*
X38199354Y-92968338D01*
X38199354Y-92968338D02*
X36421354Y-92968338D01*
X27277354Y-92968338D02*
X25499354Y-92968338D01*
X25499354Y-92968338D02*
X25499354Y-91190338D01*
X25499354Y-82046338D02*
X25499354Y-80268338D01*
X44549435Y-80268338D02*
X46327435Y-80268338D01*
X55471435Y-80268338D02*
X57249435Y-80268338D01*
X57249435Y-80268338D02*
X57249435Y-82046338D01*
X57249435Y-91190338D02*
X57249435Y-92968338D01*
X57249435Y-92968338D02*
X55471435Y-92968338D01*
X46327435Y-92968338D02*
X44549435Y-92968338D01*
X44549435Y-92968338D02*
X44549435Y-91190338D01*
X44549435Y-82046338D02*
X44549435Y-80268338D01*
X63599517Y-80268338D02*
X65377517Y-80268338D01*
X74521517Y-80268338D02*
X76299517Y-80268338D01*
X76299517Y-80268338D02*
X76299517Y-82046338D01*
X76299517Y-91190338D02*
X76299517Y-92968338D01*
X76299517Y-92968338D02*
X74521517Y-92968338D01*
X65377517Y-92968338D02*
X63599517Y-92968338D01*
X63599517Y-92968338D02*
X63599517Y-91190338D01*
X63599517Y-82046338D02*
X63599517Y-80268338D01*
X82649598Y-80268338D02*
X84427598Y-80268338D01*
X93571598Y-80268338D02*
X95349598Y-80268338D01*
X95349598Y-80268338D02*
X95349598Y-82046338D01*
X95349598Y-91190338D02*
X95349598Y-92968338D01*
X95349598Y-92968338D02*
X93571598Y-92968338D01*
X84427598Y-92968338D02*
X82649598Y-92968338D01*
X82649598Y-92968338D02*
X82649598Y-91190338D01*
X82649598Y-82046338D02*
X82649598Y-80268338D01*
X101699679Y-80268338D02*
X103477679Y-80268338D01*
X112621679Y-80268338D02*
X114399679Y-80268338D01*
X114399679Y-80268338D02*
X114399679Y-82046338D01*
X114399679Y-91190338D02*
X114399679Y-92968338D01*
X114399679Y-92968338D02*
X112621679Y-92968338D01*
X103477679Y-92968338D02*
X101699679Y-92968338D01*
X101699679Y-92968338D02*
X101699679Y-91190338D01*
X101699679Y-82046338D02*
X101699679Y-80268338D01*
X25499354Y-61218257D02*
X27277354Y-61218257D01*
X36421354Y-61218257D02*
X38199354Y-61218257D01*
X38199354Y-61218257D02*
X38199354Y-62996257D01*
X38199354Y-72140257D02*
X38199354Y-73918257D01*
X38199354Y-73918257D02*
X36421354Y-73918257D01*
X27277354Y-73918257D02*
X25499354Y-73918257D01*
X25499354Y-73918257D02*
X25499354Y-72140257D01*
X25499354Y-62996257D02*
X25499354Y-61218257D01*
X44549435Y-61218257D02*
X46327435Y-61218257D01*
X55471435Y-61218257D02*
X57249435Y-61218257D01*
X57249435Y-61218257D02*
X57249435Y-62996257D01*
X57249435Y-72140257D02*
X57249435Y-73918257D01*
X57249435Y-73918257D02*
X55471435Y-73918257D01*
X46327435Y-73918257D02*
X44549435Y-73918257D01*
X44549435Y-73918257D02*
X44549435Y-72140257D01*
X44549435Y-62996257D02*
X44549435Y-61218257D01*
X63599517Y-61218257D02*
X65377517Y-61218257D01*
X74521517Y-61218257D02*
X76299517Y-61218257D01*
X76299517Y-61218257D02*
X76299517Y-62996257D01*
X76299517Y-72140257D02*
X76299517Y-73918257D01*
X76299517Y-73918257D02*
X74521517Y-73918257D01*
X65377517Y-73918257D02*
X63599517Y-73918257D01*
X63599517Y-73918257D02*
X63599517Y-72140257D01*
X63599517Y-62996257D02*
X63599517Y-61218257D01*
X82649598Y-61218257D02*
X84427598Y-61218257D01*
X93571598Y-61218257D02*
X95349598Y-61218257D01*
X95349598Y-61218257D02*
X95349598Y-62996257D01*
X95349598Y-72140257D02*
X95349598Y-73918257D01*
X95349598Y-73918257D02*
X93571598Y-73918257D01*
X84427598Y-73918257D02*
X82649598Y-73918257D01*
X82649598Y-73918257D02*
X82649598Y-72140257D01*
X82649598Y-62996257D02*
X82649598Y-61218257D01*
X101699679Y-61218257D02*
X103477679Y-61218257D01*
X112621679Y-61218257D02*
X114399679Y-61218257D01*
X114399679Y-61218257D02*
X114399679Y-62996257D01*
X114399679Y-72140257D02*
X114399679Y-73918257D01*
X114399679Y-73918257D02*
X112621679Y-73918257D01*
X103477679Y-73918257D02*
X101699679Y-73918257D01*
X101699679Y-73918257D02*
X101699679Y-72140257D01*
X101699679Y-62996257D02*
X101699679Y-61218257D01*
X25499354Y-42168175D02*
X27277354Y-42168175D01*
X36421354Y-42168175D02*
X38199354Y-42168175D01*
X38199354Y-42168175D02*
X38199354Y-43946175D01*
X38199354Y-53090175D02*
X38199354Y-54868175D01*
X38199354Y-54868175D02*
X36421354Y-54868175D01*
X27277354Y-54868175D02*
X25499354Y-54868175D01*
X25499354Y-54868175D02*
X25499354Y-53090175D01*
X25499354Y-43946175D02*
X25499354Y-42168175D01*
X44549435Y-42168175D02*
X46327435Y-42168175D01*
X55471435Y-42168175D02*
X57249435Y-42168175D01*
X57249435Y-42168175D02*
X57249435Y-43946175D01*
X57249435Y-53090175D02*
X57249435Y-54868175D01*
X57249435Y-54868175D02*
X55471435Y-54868175D01*
X46327435Y-54868175D02*
X44549435Y-54868175D01*
X44549435Y-54868175D02*
X44549435Y-53090175D01*
X44549435Y-43946175D02*
X44549435Y-42168175D01*
X63599517Y-42168175D02*
X65377517Y-42168175D01*
X74521517Y-42168175D02*
X76299517Y-42168175D01*
X76299517Y-42168175D02*
X76299517Y-43946175D01*
X76299517Y-53090175D02*
X76299517Y-54868175D01*
X76299517Y-54868175D02*
X74521517Y-54868175D01*
X65377517Y-54868175D02*
X63599517Y-54868175D01*
X63599517Y-54868175D02*
X63599517Y-53090175D01*
X63599517Y-43946175D02*
X63599517Y-42168175D01*
X82649598Y-42168175D02*
X84427598Y-42168175D01*
X93571598Y-42168175D02*
X95349598Y-42168175D01*
X95349598Y-42168175D02*
X95349598Y-43946175D01*
X95349598Y-53090175D02*
X95349598Y-54868175D01*
X95349598Y-54868175D02*
X93571598Y-54868175D01*
X84427598Y-54868175D02*
X82649598Y-54868175D01*
X82649598Y-54868175D02*
X82649598Y-53090175D01*
X82649598Y-43946175D02*
X82649598Y-42168175D01*
X101699679Y-42168175D02*
X103477679Y-42168175D01*
X112621679Y-42168175D02*
X114399679Y-42168175D01*
X114399679Y-42168175D02*
X114399679Y-43946175D01*
X114399679Y-53090175D02*
X114399679Y-54868175D01*
X114399679Y-54868175D02*
X112621679Y-54868175D01*
X103477679Y-54868175D02*
X101699679Y-54868175D01*
X101699679Y-54868175D02*
X101699679Y-53090175D01*
X101699679Y-43946175D02*
X101699679Y-42168175D01*
X120749761Y-118368500D02*
X122527761Y-118368500D01*
X131671761Y-118368500D02*
X133449761Y-118368500D01*
X133449761Y-118368500D02*
X133449761Y-120146500D01*
X133449761Y-129290500D02*
X133449761Y-131068500D01*
X133449761Y-131068500D02*
X131671761Y-131068500D01*
X122527761Y-131068500D02*
X120749761Y-131068500D01*
X120749761Y-131068500D02*
X120749761Y-129290500D01*
X120749761Y-120146500D02*
X120749761Y-118368500D01*
X120749761Y-99318419D02*
X122527761Y-99318419D01*
X131671761Y-99318419D02*
X133449761Y-99318419D01*
X133449761Y-99318419D02*
X133449761Y-101096419D01*
X133449761Y-110240419D02*
X133449761Y-112018419D01*
X133449761Y-112018419D02*
X131671761Y-112018419D01*
X122527761Y-112018419D02*
X120749761Y-112018419D01*
X120749761Y-112018419D02*
X120749761Y-110240419D01*
X120749761Y-101096419D02*
X120749761Y-99318419D01*
X120749761Y-80268338D02*
X122527761Y-80268338D01*
X131671761Y-80268338D02*
X133449761Y-80268338D01*
X133449761Y-80268338D02*
X133449761Y-82046338D01*
X133449761Y-91190338D02*
X133449761Y-92968338D01*
X133449761Y-92968338D02*
X131671761Y-92968338D01*
X122527761Y-92968338D02*
X120749761Y-92968338D01*
X120749761Y-92968338D02*
X120749761Y-91190338D01*
X120749761Y-82046338D02*
X120749761Y-80268338D01*
X120749761Y-61218257D02*
X122527761Y-61218257D01*
X131671761Y-61218257D02*
X133449761Y-61218257D01*
X133449761Y-61218257D02*
X133449761Y-62996257D01*
X133449761Y-72140257D02*
X133449761Y-73918257D01*
X133449761Y-73918257D02*
X131671761Y-73918257D01*
X122527761Y-73918257D02*
X120749761Y-73918257D01*
X120749761Y-73918257D02*
X120749761Y-72140257D01*
X120749761Y-62996257D02*
X120749761Y-61218257D01*
X120749761Y-42168175D02*
X122527761Y-42168175D01*
X131671761Y-42168175D02*
X133449761Y-42168175D01*
X133449761Y-42168175D02*
X133449761Y-43946175D01*
X133449761Y-53090175D02*
X133449761Y-54868175D01*
X133449761Y-54868175D02*
X131671761Y-54868175D01*
X122527761Y-54868175D02*
X120749761Y-54868175D01*
X120749761Y-54868175D02*
X120749761Y-53090175D01*
X120749761Y-43946175D02*
X120749761Y-42168175D01*
D11*
X92667709Y-27043835D02*
X92667709Y-30643835D01*
X94767709Y-27043835D02*
X94767709Y-30643835D01*
X94017709Y-29093835D02*
X93417709Y-29093835D01*
X93417709Y-29093835D02*
X93717709Y-28793835D01*
X93717709Y-28793835D02*
X93917709Y-28993835D01*
X93917709Y-28993835D02*
X93667709Y-28993835D01*
X93667709Y-28993835D02*
X93717709Y-28943835D01*
X94217709Y-28693835D02*
X93217709Y-28693835D01*
X93717709Y-29193835D02*
X93717709Y-29693835D01*
X93717709Y-28693835D02*
X94217709Y-29193835D01*
X94217709Y-29193835D02*
X93217709Y-29193835D01*
X93217709Y-29193835D02*
X93717709Y-28693835D01*
X96284009Y-27020437D02*
X96284009Y-30620437D01*
X98384009Y-27020437D02*
X98384009Y-30620437D01*
X97634009Y-29070437D02*
X97034009Y-29070437D01*
X97034009Y-29070437D02*
X97334009Y-28770437D01*
X97334009Y-28770437D02*
X97534009Y-28970437D01*
X97534009Y-28970437D02*
X97284009Y-28970437D01*
X97284009Y-28970437D02*
X97334009Y-28920437D01*
X97834009Y-28670437D02*
X96834009Y-28670437D01*
X97334009Y-29170437D02*
X97334009Y-29670437D01*
X97334009Y-28670437D02*
X97834009Y-29170437D01*
X97834009Y-29170437D02*
X96834009Y-29170437D01*
X96834009Y-29170437D02*
X97334009Y-28670437D01*
X99800029Y-27043835D02*
X99800029Y-30643835D01*
X101900029Y-27043835D02*
X101900029Y-30643835D01*
X101150029Y-29093835D02*
X100550029Y-29093835D01*
X100550029Y-29093835D02*
X100850029Y-28793835D01*
X100850029Y-28793835D02*
X101050029Y-28993835D01*
X101050029Y-28993835D02*
X100800029Y-28993835D01*
X100800029Y-28993835D02*
X100850029Y-28943835D01*
X101350029Y-28693835D02*
X100350029Y-28693835D01*
X100850029Y-29193835D02*
X100850029Y-29693835D01*
X100850029Y-28693835D02*
X101350029Y-29193835D01*
X101350029Y-29193835D02*
X100350029Y-29193835D01*
X100350029Y-29193835D02*
X100850029Y-28693835D01*
D13*
X128910000Y-21446000D02*
X120010000Y-21446000D01*
X120010000Y-12446000D02*
X120010000Y-21446000D01*
X128910000Y-12446000D02*
X128910000Y-21446000D01*
X120010000Y-12446000D02*
X128910000Y-12446000D01*
D11*
X76131269Y-24730495D02*
X76831269Y-24730495D01*
X76831269Y-25930495D02*
X76131269Y-25930495D01*
X43784000Y-24730000D02*
X43084000Y-24730000D01*
X43084000Y-23530000D02*
X43784000Y-23530000D01*
X47152000Y-16606000D02*
X47152000Y-15906000D01*
X48352000Y-15906000D02*
X48352000Y-16606000D01*
X43728120Y-33660640D02*
X43028120Y-33660640D01*
X43028120Y-32460640D02*
X43728120Y-32460640D01*
X63886640Y-38039560D02*
X63886640Y-38739560D01*
X62686640Y-38739560D02*
X62686640Y-38039560D01*
X53710320Y-27341120D02*
X53010320Y-27341120D01*
X53010320Y-26141120D02*
X53710320Y-26141120D01*
X45308000Y-15923820D02*
X44608000Y-15923820D01*
X44608000Y-14723820D02*
X45308000Y-14723820D01*
X108703740Y-30914720D02*
X108703740Y-31914720D01*
X107353740Y-31914720D02*
X107353740Y-30914720D01*
X93217709Y-25249855D02*
X94217709Y-25249855D01*
X94217709Y-26599855D02*
X93217709Y-26599855D01*
X96834009Y-25221204D02*
X97834009Y-25221204D01*
X97834009Y-26571204D02*
X96834009Y-26571204D01*
X100350029Y-25249855D02*
X101350029Y-25249855D01*
X101350029Y-26599855D02*
X100350029Y-26599855D01*
X118094000Y-30226000D02*
G75*
G03X118094000Y-30226000I-1000000J0D01*
G01*
X115894000Y-28426000D02*
X118294000Y-28426000D01*
X115294000Y-29026000D02*
X115894000Y-28426000D01*
X115294000Y-31426000D02*
X115294000Y-29026000D01*
X115894000Y-32026000D02*
X115294000Y-31426000D01*
X118294000Y-32026000D02*
X115894000Y-32026000D01*
X118894000Y-31426000D02*
X118294000Y-32026000D01*
X118894000Y-29026000D02*
X118894000Y-31426000D01*
X118294000Y-28426000D02*
X118894000Y-29026000D01*
X115644000Y-27526000D02*
X118544000Y-27526000D01*
X115194000Y-27976000D02*
X115644000Y-27526000D01*
X114394000Y-31226000D02*
X114394000Y-29226000D01*
X115644000Y-32926000D02*
X115194000Y-32476000D01*
X118544000Y-32926000D02*
X115644000Y-32926000D01*
X118994000Y-32476000D02*
X118544000Y-32926000D01*
X119794000Y-29226000D02*
X119794000Y-31226000D01*
X118544000Y-27526000D02*
X118994000Y-27976000D01*
X138938000Y-16764000D02*
G75*
G03X138938000Y-16764000I-2286000J0D01*
G01*
X78168667Y-73096381D02*
X77835333Y-72620190D01*
X77597238Y-73096381D02*
X77597238Y-72096381D01*
X77978191Y-72096381D01*
X78073429Y-72144000D01*
X78121048Y-72191619D01*
X78168667Y-72286857D01*
X78168667Y-72429714D01*
X78121048Y-72524952D01*
X78073429Y-72572571D01*
X77978191Y-72620190D01*
X77597238Y-72620190D01*
X78597238Y-72572571D02*
X78930572Y-72572571D01*
X79073429Y-73096381D02*
X78597238Y-73096381D01*
X78597238Y-72096381D01*
X79073429Y-72096381D01*
X79835334Y-72572571D02*
X79502000Y-72572571D01*
X79502000Y-73096381D02*
X79502000Y-72096381D01*
X79978191Y-72096381D01*
X80502000Y-72096381D02*
X80502000Y-72334476D01*
X80263905Y-72239238D02*
X80502000Y-72334476D01*
X80740096Y-72239238D01*
X80359143Y-72524952D02*
X80502000Y-72334476D01*
X80644858Y-72524952D01*
X81263905Y-72096381D02*
X81263905Y-72334476D01*
X81025810Y-72239238D02*
X81263905Y-72334476D01*
X81502001Y-72239238D01*
X81121048Y-72524952D02*
X81263905Y-72334476D01*
X81406763Y-72524952D01*
X21780667Y-132786381D02*
X21447333Y-132310190D01*
X21209238Y-132786381D02*
X21209238Y-131786381D01*
X21590191Y-131786381D01*
X21685429Y-131834000D01*
X21733048Y-131881619D01*
X21780667Y-131976857D01*
X21780667Y-132119714D01*
X21733048Y-132214952D01*
X21685429Y-132262571D01*
X21590191Y-132310190D01*
X21209238Y-132310190D01*
X22209238Y-132262571D02*
X22542572Y-132262571D01*
X22685429Y-132786381D02*
X22209238Y-132786381D01*
X22209238Y-131786381D01*
X22685429Y-131786381D01*
X23447334Y-132262571D02*
X23114000Y-132262571D01*
X23114000Y-132786381D02*
X23114000Y-131786381D01*
X23590191Y-131786381D01*
X24114000Y-131786381D02*
X24114000Y-132024476D01*
X23875905Y-131929238D02*
X24114000Y-132024476D01*
X24352096Y-131929238D01*
X23971143Y-132214952D02*
X24114000Y-132024476D01*
X24256858Y-132214952D01*
X24875905Y-131786381D02*
X24875905Y-132024476D01*
X24637810Y-131929238D02*
X24875905Y-132024476D01*
X25114001Y-131929238D01*
X24733048Y-132214952D02*
X24875905Y-132024476D01*
X25018763Y-132214952D01*
X135318667Y-132786381D02*
X134985333Y-132310190D01*
X134747238Y-132786381D02*
X134747238Y-131786381D01*
X135128191Y-131786381D01*
X135223429Y-131834000D01*
X135271048Y-131881619D01*
X135318667Y-131976857D01*
X135318667Y-132119714D01*
X135271048Y-132214952D01*
X135223429Y-132262571D01*
X135128191Y-132310190D01*
X134747238Y-132310190D01*
X135747238Y-132262571D02*
X136080572Y-132262571D01*
X136223429Y-132786381D02*
X135747238Y-132786381D01*
X135747238Y-131786381D01*
X136223429Y-131786381D01*
X136985334Y-132262571D02*
X136652000Y-132262571D01*
X136652000Y-132786381D02*
X136652000Y-131786381D01*
X137128191Y-131786381D01*
X137652000Y-131786381D02*
X137652000Y-132024476D01*
X137413905Y-131929238D02*
X137652000Y-132024476D01*
X137890096Y-131929238D01*
X137509143Y-132214952D02*
X137652000Y-132024476D01*
X137794858Y-132214952D01*
X138413905Y-131786381D02*
X138413905Y-132024476D01*
X138175810Y-131929238D02*
X138413905Y-132024476D01*
X138652001Y-131929238D01*
X138271048Y-132214952D02*
X138413905Y-132024476D01*
X138556763Y-132214952D01*
X21780667Y-14168381D02*
X21447333Y-13692190D01*
X21209238Y-14168381D02*
X21209238Y-13168381D01*
X21590191Y-13168381D01*
X21685429Y-13216000D01*
X21733048Y-13263619D01*
X21780667Y-13358857D01*
X21780667Y-13501714D01*
X21733048Y-13596952D01*
X21685429Y-13644571D01*
X21590191Y-13692190D01*
X21209238Y-13692190D01*
X22209238Y-13644571D02*
X22542572Y-13644571D01*
X22685429Y-14168381D02*
X22209238Y-14168381D01*
X22209238Y-13168381D01*
X22685429Y-13168381D01*
X23447334Y-13644571D02*
X23114000Y-13644571D01*
X23114000Y-14168381D02*
X23114000Y-13168381D01*
X23590191Y-13168381D01*
X24114000Y-13168381D02*
X24114000Y-13406476D01*
X23875905Y-13311238D02*
X24114000Y-13406476D01*
X24352096Y-13311238D01*
X23971143Y-13596952D02*
X24114000Y-13406476D01*
X24256858Y-13596952D01*
X24875905Y-13168381D02*
X24875905Y-13406476D01*
X24637810Y-13311238D02*
X24875905Y-13406476D01*
X25114001Y-13311238D01*
X24733048Y-13596952D02*
X24875905Y-13406476D01*
X25018763Y-13596952D01*
D14*
X28213768Y-128657677D02*
X28467768Y-128730249D01*
X28891101Y-128730249D01*
X29060434Y-128657677D01*
X29145101Y-128585106D01*
X29229768Y-128439963D01*
X29229768Y-128294820D01*
X29145101Y-128149677D01*
X29060434Y-128077106D01*
X28891101Y-128004534D01*
X28552434Y-127931963D01*
X28383101Y-127859391D01*
X28298434Y-127786820D01*
X28213768Y-127641677D01*
X28213768Y-127496534D01*
X28298434Y-127351391D01*
X28383101Y-127278820D01*
X28552434Y-127206249D01*
X28975768Y-127206249D01*
X29229768Y-127278820D01*
X29822434Y-127206249D02*
X30245767Y-128730249D01*
X30584434Y-127641677D01*
X30923101Y-128730249D01*
X31346434Y-127206249D01*
X32362434Y-127206249D02*
X32531767Y-127206249D01*
X32701101Y-127278820D01*
X32785767Y-127351391D01*
X32870434Y-127496534D01*
X32955101Y-127786820D01*
X32955101Y-128149677D01*
X32870434Y-128439963D01*
X32785767Y-128585106D01*
X32701101Y-128657677D01*
X32531767Y-128730249D01*
X32362434Y-128730249D01*
X32193101Y-128657677D01*
X32108434Y-128585106D01*
X32023767Y-128439963D01*
X31939101Y-128149677D01*
X31939101Y-127786820D01*
X32023767Y-127496534D01*
X32108434Y-127351391D01*
X32193101Y-127278820D01*
X32362434Y-127206249D01*
X33717100Y-128585106D02*
X33801767Y-128657677D01*
X33717100Y-128730249D01*
X33632434Y-128657677D01*
X33717100Y-128585106D01*
X33717100Y-128730249D01*
X33717100Y-127786820D02*
X33801767Y-127859391D01*
X33717100Y-127931963D01*
X33632434Y-127859391D01*
X33717100Y-127786820D01*
X33717100Y-127931963D01*
X35495101Y-128730249D02*
X34479101Y-128730249D01*
X34987101Y-128730249D02*
X34987101Y-127206249D01*
X34817767Y-127423963D01*
X34648434Y-127569106D01*
X34479101Y-127641677D01*
X47263849Y-128657677D02*
X47517849Y-128730249D01*
X47941182Y-128730249D01*
X48110515Y-128657677D01*
X48195182Y-128585106D01*
X48279849Y-128439963D01*
X48279849Y-128294820D01*
X48195182Y-128149677D01*
X48110515Y-128077106D01*
X47941182Y-128004534D01*
X47602515Y-127931963D01*
X47433182Y-127859391D01*
X47348515Y-127786820D01*
X47263849Y-127641677D01*
X47263849Y-127496534D01*
X47348515Y-127351391D01*
X47433182Y-127278820D01*
X47602515Y-127206249D01*
X48025849Y-127206249D01*
X48279849Y-127278820D01*
X48872515Y-127206249D02*
X49295848Y-128730249D01*
X49634515Y-127641677D01*
X49973182Y-128730249D01*
X50396515Y-127206249D01*
X51412515Y-127206249D02*
X51581848Y-127206249D01*
X51751182Y-127278820D01*
X51835848Y-127351391D01*
X51920515Y-127496534D01*
X52005182Y-127786820D01*
X52005182Y-128149677D01*
X51920515Y-128439963D01*
X51835848Y-128585106D01*
X51751182Y-128657677D01*
X51581848Y-128730249D01*
X51412515Y-128730249D01*
X51243182Y-128657677D01*
X51158515Y-128585106D01*
X51073848Y-128439963D01*
X50989182Y-128149677D01*
X50989182Y-127786820D01*
X51073848Y-127496534D01*
X51158515Y-127351391D01*
X51243182Y-127278820D01*
X51412515Y-127206249D01*
X52767181Y-128585106D02*
X52851848Y-128657677D01*
X52767181Y-128730249D01*
X52682515Y-128657677D01*
X52767181Y-128585106D01*
X52767181Y-128730249D01*
X52767181Y-127786820D02*
X52851848Y-127859391D01*
X52767181Y-127931963D01*
X52682515Y-127859391D01*
X52767181Y-127786820D01*
X52767181Y-127931963D01*
X53529182Y-127351391D02*
X53613848Y-127278820D01*
X53783182Y-127206249D01*
X54206515Y-127206249D01*
X54375848Y-127278820D01*
X54460515Y-127351391D01*
X54545182Y-127496534D01*
X54545182Y-127641677D01*
X54460515Y-127859391D01*
X53444515Y-128730249D01*
X54545182Y-128730249D01*
X66313931Y-128657677D02*
X66567931Y-128730249D01*
X66991264Y-128730249D01*
X67160597Y-128657677D01*
X67245264Y-128585106D01*
X67329931Y-128439963D01*
X67329931Y-128294820D01*
X67245264Y-128149677D01*
X67160597Y-128077106D01*
X66991264Y-128004534D01*
X66652597Y-127931963D01*
X66483264Y-127859391D01*
X66398597Y-127786820D01*
X66313931Y-127641677D01*
X66313931Y-127496534D01*
X66398597Y-127351391D01*
X66483264Y-127278820D01*
X66652597Y-127206249D01*
X67075931Y-127206249D01*
X67329931Y-127278820D01*
X67922597Y-127206249D02*
X68345930Y-128730249D01*
X68684597Y-127641677D01*
X69023264Y-128730249D01*
X69446597Y-127206249D01*
X70462597Y-127206249D02*
X70631930Y-127206249D01*
X70801264Y-127278820D01*
X70885930Y-127351391D01*
X70970597Y-127496534D01*
X71055264Y-127786820D01*
X71055264Y-128149677D01*
X70970597Y-128439963D01*
X70885930Y-128585106D01*
X70801264Y-128657677D01*
X70631930Y-128730249D01*
X70462597Y-128730249D01*
X70293264Y-128657677D01*
X70208597Y-128585106D01*
X70123930Y-128439963D01*
X70039264Y-128149677D01*
X70039264Y-127786820D01*
X70123930Y-127496534D01*
X70208597Y-127351391D01*
X70293264Y-127278820D01*
X70462597Y-127206249D01*
X71817263Y-128585106D02*
X71901930Y-128657677D01*
X71817263Y-128730249D01*
X71732597Y-128657677D01*
X71817263Y-128585106D01*
X71817263Y-128730249D01*
X71817263Y-127786820D02*
X71901930Y-127859391D01*
X71817263Y-127931963D01*
X71732597Y-127859391D01*
X71817263Y-127786820D01*
X71817263Y-127931963D01*
X72494597Y-127206249D02*
X73595264Y-127206249D01*
X73002597Y-127786820D01*
X73256597Y-127786820D01*
X73425930Y-127859391D01*
X73510597Y-127931963D01*
X73595264Y-128077106D01*
X73595264Y-128439963D01*
X73510597Y-128585106D01*
X73425930Y-128657677D01*
X73256597Y-128730249D01*
X72748597Y-128730249D01*
X72579264Y-128657677D01*
X72494597Y-128585106D01*
X85364012Y-128657677D02*
X85618012Y-128730249D01*
X86041345Y-128730249D01*
X86210678Y-128657677D01*
X86295345Y-128585106D01*
X86380012Y-128439963D01*
X86380012Y-128294820D01*
X86295345Y-128149677D01*
X86210678Y-128077106D01*
X86041345Y-128004534D01*
X85702678Y-127931963D01*
X85533345Y-127859391D01*
X85448678Y-127786820D01*
X85364012Y-127641677D01*
X85364012Y-127496534D01*
X85448678Y-127351391D01*
X85533345Y-127278820D01*
X85702678Y-127206249D01*
X86126012Y-127206249D01*
X86380012Y-127278820D01*
X86972678Y-127206249D02*
X87396011Y-128730249D01*
X87734678Y-127641677D01*
X88073345Y-128730249D01*
X88496678Y-127206249D01*
X89512678Y-127206249D02*
X89682011Y-127206249D01*
X89851345Y-127278820D01*
X89936011Y-127351391D01*
X90020678Y-127496534D01*
X90105345Y-127786820D01*
X90105345Y-128149677D01*
X90020678Y-128439963D01*
X89936011Y-128585106D01*
X89851345Y-128657677D01*
X89682011Y-128730249D01*
X89512678Y-128730249D01*
X89343345Y-128657677D01*
X89258678Y-128585106D01*
X89174011Y-128439963D01*
X89089345Y-128149677D01*
X89089345Y-127786820D01*
X89174011Y-127496534D01*
X89258678Y-127351391D01*
X89343345Y-127278820D01*
X89512678Y-127206249D01*
X90867344Y-128585106D02*
X90952011Y-128657677D01*
X90867344Y-128730249D01*
X90782678Y-128657677D01*
X90867344Y-128585106D01*
X90867344Y-128730249D01*
X90867344Y-127786820D02*
X90952011Y-127859391D01*
X90867344Y-127931963D01*
X90782678Y-127859391D01*
X90867344Y-127786820D01*
X90867344Y-127931963D01*
X92476011Y-127714249D02*
X92476011Y-128730249D01*
X92052678Y-127133677D02*
X91629345Y-128222249D01*
X92730011Y-128222249D01*
X104414093Y-128657677D02*
X104668093Y-128730249D01*
X105091426Y-128730249D01*
X105260759Y-128657677D01*
X105345426Y-128585106D01*
X105430093Y-128439963D01*
X105430093Y-128294820D01*
X105345426Y-128149677D01*
X105260759Y-128077106D01*
X105091426Y-128004534D01*
X104752759Y-127931963D01*
X104583426Y-127859391D01*
X104498759Y-127786820D01*
X104414093Y-127641677D01*
X104414093Y-127496534D01*
X104498759Y-127351391D01*
X104583426Y-127278820D01*
X104752759Y-127206249D01*
X105176093Y-127206249D01*
X105430093Y-127278820D01*
X106022759Y-127206249D02*
X106446092Y-128730249D01*
X106784759Y-127641677D01*
X107123426Y-128730249D01*
X107546759Y-127206249D01*
X108562759Y-127206249D02*
X108732092Y-127206249D01*
X108901426Y-127278820D01*
X108986092Y-127351391D01*
X109070759Y-127496534D01*
X109155426Y-127786820D01*
X109155426Y-128149677D01*
X109070759Y-128439963D01*
X108986092Y-128585106D01*
X108901426Y-128657677D01*
X108732092Y-128730249D01*
X108562759Y-128730249D01*
X108393426Y-128657677D01*
X108308759Y-128585106D01*
X108224092Y-128439963D01*
X108139426Y-128149677D01*
X108139426Y-127786820D01*
X108224092Y-127496534D01*
X108308759Y-127351391D01*
X108393426Y-127278820D01*
X108562759Y-127206249D01*
X109917425Y-128585106D02*
X110002092Y-128657677D01*
X109917425Y-128730249D01*
X109832759Y-128657677D01*
X109917425Y-128585106D01*
X109917425Y-128730249D01*
X109917425Y-127786820D02*
X110002092Y-127859391D01*
X109917425Y-127931963D01*
X109832759Y-127859391D01*
X109917425Y-127786820D01*
X109917425Y-127931963D01*
X111610759Y-127206249D02*
X110764092Y-127206249D01*
X110679426Y-127931963D01*
X110764092Y-127859391D01*
X110933426Y-127786820D01*
X111356759Y-127786820D01*
X111526092Y-127859391D01*
X111610759Y-127931963D01*
X111695426Y-128077106D01*
X111695426Y-128439963D01*
X111610759Y-128585106D01*
X111526092Y-128657677D01*
X111356759Y-128730249D01*
X110933426Y-128730249D01*
X110764092Y-128657677D01*
X110679426Y-128585106D01*
X28213768Y-109607596D02*
X28467768Y-109680168D01*
X28891101Y-109680168D01*
X29060434Y-109607596D01*
X29145101Y-109535025D01*
X29229768Y-109389882D01*
X29229768Y-109244739D01*
X29145101Y-109099596D01*
X29060434Y-109027025D01*
X28891101Y-108954453D01*
X28552434Y-108881882D01*
X28383101Y-108809310D01*
X28298434Y-108736739D01*
X28213768Y-108591596D01*
X28213768Y-108446453D01*
X28298434Y-108301310D01*
X28383101Y-108228739D01*
X28552434Y-108156168D01*
X28975768Y-108156168D01*
X29229768Y-108228739D01*
X29822434Y-108156168D02*
X30245767Y-109680168D01*
X30584434Y-108591596D01*
X30923101Y-109680168D01*
X31346434Y-108156168D01*
X32955101Y-109680168D02*
X31939101Y-109680168D01*
X32447101Y-109680168D02*
X32447101Y-108156168D01*
X32277767Y-108373882D01*
X32108434Y-108519025D01*
X31939101Y-108591596D01*
X33717100Y-109535025D02*
X33801767Y-109607596D01*
X33717100Y-109680168D01*
X33632434Y-109607596D01*
X33717100Y-109535025D01*
X33717100Y-109680168D01*
X33717100Y-108736739D02*
X33801767Y-108809310D01*
X33717100Y-108881882D01*
X33632434Y-108809310D01*
X33717100Y-108736739D01*
X33717100Y-108881882D01*
X35495101Y-109680168D02*
X34479101Y-109680168D01*
X34987101Y-109680168D02*
X34987101Y-108156168D01*
X34817767Y-108373882D01*
X34648434Y-108519025D01*
X34479101Y-108591596D01*
X47263849Y-109607596D02*
X47517849Y-109680168D01*
X47941182Y-109680168D01*
X48110515Y-109607596D01*
X48195182Y-109535025D01*
X48279849Y-109389882D01*
X48279849Y-109244739D01*
X48195182Y-109099596D01*
X48110515Y-109027025D01*
X47941182Y-108954453D01*
X47602515Y-108881882D01*
X47433182Y-108809310D01*
X47348515Y-108736739D01*
X47263849Y-108591596D01*
X47263849Y-108446453D01*
X47348515Y-108301310D01*
X47433182Y-108228739D01*
X47602515Y-108156168D01*
X48025849Y-108156168D01*
X48279849Y-108228739D01*
X48872515Y-108156168D02*
X49295848Y-109680168D01*
X49634515Y-108591596D01*
X49973182Y-109680168D01*
X50396515Y-108156168D01*
X52005182Y-109680168D02*
X50989182Y-109680168D01*
X51497182Y-109680168D02*
X51497182Y-108156168D01*
X51327848Y-108373882D01*
X51158515Y-108519025D01*
X50989182Y-108591596D01*
X52767181Y-109535025D02*
X52851848Y-109607596D01*
X52767181Y-109680168D01*
X52682515Y-109607596D01*
X52767181Y-109535025D01*
X52767181Y-109680168D01*
X52767181Y-108736739D02*
X52851848Y-108809310D01*
X52767181Y-108881882D01*
X52682515Y-108809310D01*
X52767181Y-108736739D01*
X52767181Y-108881882D01*
X53529182Y-108301310D02*
X53613848Y-108228739D01*
X53783182Y-108156168D01*
X54206515Y-108156168D01*
X54375848Y-108228739D01*
X54460515Y-108301310D01*
X54545182Y-108446453D01*
X54545182Y-108591596D01*
X54460515Y-108809310D01*
X53444515Y-109680168D01*
X54545182Y-109680168D01*
X66313931Y-109607596D02*
X66567931Y-109680168D01*
X66991264Y-109680168D01*
X67160597Y-109607596D01*
X67245264Y-109535025D01*
X67329931Y-109389882D01*
X67329931Y-109244739D01*
X67245264Y-109099596D01*
X67160597Y-109027025D01*
X66991264Y-108954453D01*
X66652597Y-108881882D01*
X66483264Y-108809310D01*
X66398597Y-108736739D01*
X66313931Y-108591596D01*
X66313931Y-108446453D01*
X66398597Y-108301310D01*
X66483264Y-108228739D01*
X66652597Y-108156168D01*
X67075931Y-108156168D01*
X67329931Y-108228739D01*
X67922597Y-108156168D02*
X68345930Y-109680168D01*
X68684597Y-108591596D01*
X69023264Y-109680168D01*
X69446597Y-108156168D01*
X71055264Y-109680168D02*
X70039264Y-109680168D01*
X70547264Y-109680168D02*
X70547264Y-108156168D01*
X70377930Y-108373882D01*
X70208597Y-108519025D01*
X70039264Y-108591596D01*
X71817263Y-109535025D02*
X71901930Y-109607596D01*
X71817263Y-109680168D01*
X71732597Y-109607596D01*
X71817263Y-109535025D01*
X71817263Y-109680168D01*
X71817263Y-108736739D02*
X71901930Y-108809310D01*
X71817263Y-108881882D01*
X71732597Y-108809310D01*
X71817263Y-108736739D01*
X71817263Y-108881882D01*
X72494597Y-108156168D02*
X73595264Y-108156168D01*
X73002597Y-108736739D01*
X73256597Y-108736739D01*
X73425930Y-108809310D01*
X73510597Y-108881882D01*
X73595264Y-109027025D01*
X73595264Y-109389882D01*
X73510597Y-109535025D01*
X73425930Y-109607596D01*
X73256597Y-109680168D01*
X72748597Y-109680168D01*
X72579264Y-109607596D01*
X72494597Y-109535025D01*
X85364012Y-109607596D02*
X85618012Y-109680168D01*
X86041345Y-109680168D01*
X86210678Y-109607596D01*
X86295345Y-109535025D01*
X86380012Y-109389882D01*
X86380012Y-109244739D01*
X86295345Y-109099596D01*
X86210678Y-109027025D01*
X86041345Y-108954453D01*
X85702678Y-108881882D01*
X85533345Y-108809310D01*
X85448678Y-108736739D01*
X85364012Y-108591596D01*
X85364012Y-108446453D01*
X85448678Y-108301310D01*
X85533345Y-108228739D01*
X85702678Y-108156168D01*
X86126012Y-108156168D01*
X86380012Y-108228739D01*
X86972678Y-108156168D02*
X87396011Y-109680168D01*
X87734678Y-108591596D01*
X88073345Y-109680168D01*
X88496678Y-108156168D01*
X90105345Y-109680168D02*
X89089345Y-109680168D01*
X89597345Y-109680168D02*
X89597345Y-108156168D01*
X89428011Y-108373882D01*
X89258678Y-108519025D01*
X89089345Y-108591596D01*
X90867344Y-109535025D02*
X90952011Y-109607596D01*
X90867344Y-109680168D01*
X90782678Y-109607596D01*
X90867344Y-109535025D01*
X90867344Y-109680168D01*
X90867344Y-108736739D02*
X90952011Y-108809310D01*
X90867344Y-108881882D01*
X90782678Y-108809310D01*
X90867344Y-108736739D01*
X90867344Y-108881882D01*
X92476011Y-108664168D02*
X92476011Y-109680168D01*
X92052678Y-108083596D02*
X91629345Y-109172168D01*
X92730011Y-109172168D01*
X104414093Y-109607596D02*
X104668093Y-109680168D01*
X105091426Y-109680168D01*
X105260759Y-109607596D01*
X105345426Y-109535025D01*
X105430093Y-109389882D01*
X105430093Y-109244739D01*
X105345426Y-109099596D01*
X105260759Y-109027025D01*
X105091426Y-108954453D01*
X104752759Y-108881882D01*
X104583426Y-108809310D01*
X104498759Y-108736739D01*
X104414093Y-108591596D01*
X104414093Y-108446453D01*
X104498759Y-108301310D01*
X104583426Y-108228739D01*
X104752759Y-108156168D01*
X105176093Y-108156168D01*
X105430093Y-108228739D01*
X106022759Y-108156168D02*
X106446092Y-109680168D01*
X106784759Y-108591596D01*
X107123426Y-109680168D01*
X107546759Y-108156168D01*
X109155426Y-109680168D02*
X108139426Y-109680168D01*
X108647426Y-109680168D02*
X108647426Y-108156168D01*
X108478092Y-108373882D01*
X108308759Y-108519025D01*
X108139426Y-108591596D01*
X109917425Y-109535025D02*
X110002092Y-109607596D01*
X109917425Y-109680168D01*
X109832759Y-109607596D01*
X109917425Y-109535025D01*
X109917425Y-109680168D01*
X109917425Y-108736739D02*
X110002092Y-108809310D01*
X109917425Y-108881882D01*
X109832759Y-108809310D01*
X109917425Y-108736739D01*
X109917425Y-108881882D01*
X111610759Y-108156168D02*
X110764092Y-108156168D01*
X110679426Y-108881882D01*
X110764092Y-108809310D01*
X110933426Y-108736739D01*
X111356759Y-108736739D01*
X111526092Y-108809310D01*
X111610759Y-108881882D01*
X111695426Y-109027025D01*
X111695426Y-109389882D01*
X111610759Y-109535025D01*
X111526092Y-109607596D01*
X111356759Y-109680168D01*
X110933426Y-109680168D01*
X110764092Y-109607596D01*
X110679426Y-109535025D01*
X28213768Y-90557515D02*
X28467768Y-90630087D01*
X28891101Y-90630087D01*
X29060434Y-90557515D01*
X29145101Y-90484944D01*
X29229768Y-90339801D01*
X29229768Y-90194658D01*
X29145101Y-90049515D01*
X29060434Y-89976944D01*
X28891101Y-89904372D01*
X28552434Y-89831801D01*
X28383101Y-89759229D01*
X28298434Y-89686658D01*
X28213768Y-89541515D01*
X28213768Y-89396372D01*
X28298434Y-89251229D01*
X28383101Y-89178658D01*
X28552434Y-89106087D01*
X28975768Y-89106087D01*
X29229768Y-89178658D01*
X29822434Y-89106087D02*
X30245767Y-90630087D01*
X30584434Y-89541515D01*
X30923101Y-90630087D01*
X31346434Y-89106087D01*
X31939101Y-89251229D02*
X32023767Y-89178658D01*
X32193101Y-89106087D01*
X32616434Y-89106087D01*
X32785767Y-89178658D01*
X32870434Y-89251229D01*
X32955101Y-89396372D01*
X32955101Y-89541515D01*
X32870434Y-89759229D01*
X31854434Y-90630087D01*
X32955101Y-90630087D01*
X33717100Y-90484944D02*
X33801767Y-90557515D01*
X33717100Y-90630087D01*
X33632434Y-90557515D01*
X33717100Y-90484944D01*
X33717100Y-90630087D01*
X33717100Y-89686658D02*
X33801767Y-89759229D01*
X33717100Y-89831801D01*
X33632434Y-89759229D01*
X33717100Y-89686658D01*
X33717100Y-89831801D01*
X35495101Y-90630087D02*
X34479101Y-90630087D01*
X34987101Y-90630087D02*
X34987101Y-89106087D01*
X34817767Y-89323801D01*
X34648434Y-89468944D01*
X34479101Y-89541515D01*
X47263849Y-90557515D02*
X47517849Y-90630087D01*
X47941182Y-90630087D01*
X48110515Y-90557515D01*
X48195182Y-90484944D01*
X48279849Y-90339801D01*
X48279849Y-90194658D01*
X48195182Y-90049515D01*
X48110515Y-89976944D01*
X47941182Y-89904372D01*
X47602515Y-89831801D01*
X47433182Y-89759229D01*
X47348515Y-89686658D01*
X47263849Y-89541515D01*
X47263849Y-89396372D01*
X47348515Y-89251229D01*
X47433182Y-89178658D01*
X47602515Y-89106087D01*
X48025849Y-89106087D01*
X48279849Y-89178658D01*
X48872515Y-89106087D02*
X49295848Y-90630087D01*
X49634515Y-89541515D01*
X49973182Y-90630087D01*
X50396515Y-89106087D01*
X50989182Y-89251229D02*
X51073848Y-89178658D01*
X51243182Y-89106087D01*
X51666515Y-89106087D01*
X51835848Y-89178658D01*
X51920515Y-89251229D01*
X52005182Y-89396372D01*
X52005182Y-89541515D01*
X51920515Y-89759229D01*
X50904515Y-90630087D01*
X52005182Y-90630087D01*
X52767181Y-90484944D02*
X52851848Y-90557515D01*
X52767181Y-90630087D01*
X52682515Y-90557515D01*
X52767181Y-90484944D01*
X52767181Y-90630087D01*
X52767181Y-89686658D02*
X52851848Y-89759229D01*
X52767181Y-89831801D01*
X52682515Y-89759229D01*
X52767181Y-89686658D01*
X52767181Y-89831801D01*
X53529182Y-89251229D02*
X53613848Y-89178658D01*
X53783182Y-89106087D01*
X54206515Y-89106087D01*
X54375848Y-89178658D01*
X54460515Y-89251229D01*
X54545182Y-89396372D01*
X54545182Y-89541515D01*
X54460515Y-89759229D01*
X53444515Y-90630087D01*
X54545182Y-90630087D01*
X66313931Y-90557515D02*
X66567931Y-90630087D01*
X66991264Y-90630087D01*
X67160597Y-90557515D01*
X67245264Y-90484944D01*
X67329931Y-90339801D01*
X67329931Y-90194658D01*
X67245264Y-90049515D01*
X67160597Y-89976944D01*
X66991264Y-89904372D01*
X66652597Y-89831801D01*
X66483264Y-89759229D01*
X66398597Y-89686658D01*
X66313931Y-89541515D01*
X66313931Y-89396372D01*
X66398597Y-89251229D01*
X66483264Y-89178658D01*
X66652597Y-89106087D01*
X67075931Y-89106087D01*
X67329931Y-89178658D01*
X67922597Y-89106087D02*
X68345930Y-90630087D01*
X68684597Y-89541515D01*
X69023264Y-90630087D01*
X69446597Y-89106087D01*
X70039264Y-89251229D02*
X70123930Y-89178658D01*
X70293264Y-89106087D01*
X70716597Y-89106087D01*
X70885930Y-89178658D01*
X70970597Y-89251229D01*
X71055264Y-89396372D01*
X71055264Y-89541515D01*
X70970597Y-89759229D01*
X69954597Y-90630087D01*
X71055264Y-90630087D01*
X71817263Y-90484944D02*
X71901930Y-90557515D01*
X71817263Y-90630087D01*
X71732597Y-90557515D01*
X71817263Y-90484944D01*
X71817263Y-90630087D01*
X71817263Y-89686658D02*
X71901930Y-89759229D01*
X71817263Y-89831801D01*
X71732597Y-89759229D01*
X71817263Y-89686658D01*
X71817263Y-89831801D01*
X72494597Y-89106087D02*
X73595264Y-89106087D01*
X73002597Y-89686658D01*
X73256597Y-89686658D01*
X73425930Y-89759229D01*
X73510597Y-89831801D01*
X73595264Y-89976944D01*
X73595264Y-90339801D01*
X73510597Y-90484944D01*
X73425930Y-90557515D01*
X73256597Y-90630087D01*
X72748597Y-90630087D01*
X72579264Y-90557515D01*
X72494597Y-90484944D01*
X85364012Y-90557515D02*
X85618012Y-90630087D01*
X86041345Y-90630087D01*
X86210678Y-90557515D01*
X86295345Y-90484944D01*
X86380012Y-90339801D01*
X86380012Y-90194658D01*
X86295345Y-90049515D01*
X86210678Y-89976944D01*
X86041345Y-89904372D01*
X85702678Y-89831801D01*
X85533345Y-89759229D01*
X85448678Y-89686658D01*
X85364012Y-89541515D01*
X85364012Y-89396372D01*
X85448678Y-89251229D01*
X85533345Y-89178658D01*
X85702678Y-89106087D01*
X86126012Y-89106087D01*
X86380012Y-89178658D01*
X86972678Y-89106087D02*
X87396011Y-90630087D01*
X87734678Y-89541515D01*
X88073345Y-90630087D01*
X88496678Y-89106087D01*
X89089345Y-89251229D02*
X89174011Y-89178658D01*
X89343345Y-89106087D01*
X89766678Y-89106087D01*
X89936011Y-89178658D01*
X90020678Y-89251229D01*
X90105345Y-89396372D01*
X90105345Y-89541515D01*
X90020678Y-89759229D01*
X89004678Y-90630087D01*
X90105345Y-90630087D01*
X90867344Y-90484944D02*
X90952011Y-90557515D01*
X90867344Y-90630087D01*
X90782678Y-90557515D01*
X90867344Y-90484944D01*
X90867344Y-90630087D01*
X90867344Y-89686658D02*
X90952011Y-89759229D01*
X90867344Y-89831801D01*
X90782678Y-89759229D01*
X90867344Y-89686658D01*
X90867344Y-89831801D01*
X92476011Y-89614087D02*
X92476011Y-90630087D01*
X92052678Y-89033515D02*
X91629345Y-90122087D01*
X92730011Y-90122087D01*
X104414093Y-90557515D02*
X104668093Y-90630087D01*
X105091426Y-90630087D01*
X105260759Y-90557515D01*
X105345426Y-90484944D01*
X105430093Y-90339801D01*
X105430093Y-90194658D01*
X105345426Y-90049515D01*
X105260759Y-89976944D01*
X105091426Y-89904372D01*
X104752759Y-89831801D01*
X104583426Y-89759229D01*
X104498759Y-89686658D01*
X104414093Y-89541515D01*
X104414093Y-89396372D01*
X104498759Y-89251229D01*
X104583426Y-89178658D01*
X104752759Y-89106087D01*
X105176093Y-89106087D01*
X105430093Y-89178658D01*
X106022759Y-89106087D02*
X106446092Y-90630087D01*
X106784759Y-89541515D01*
X107123426Y-90630087D01*
X107546759Y-89106087D01*
X108139426Y-89251229D02*
X108224092Y-89178658D01*
X108393426Y-89106087D01*
X108816759Y-89106087D01*
X108986092Y-89178658D01*
X109070759Y-89251229D01*
X109155426Y-89396372D01*
X109155426Y-89541515D01*
X109070759Y-89759229D01*
X108054759Y-90630087D01*
X109155426Y-90630087D01*
X109917425Y-90484944D02*
X110002092Y-90557515D01*
X109917425Y-90630087D01*
X109832759Y-90557515D01*
X109917425Y-90484944D01*
X109917425Y-90630087D01*
X109917425Y-89686658D02*
X110002092Y-89759229D01*
X109917425Y-89831801D01*
X109832759Y-89759229D01*
X109917425Y-89686658D01*
X109917425Y-89831801D01*
X111610759Y-89106087D02*
X110764092Y-89106087D01*
X110679426Y-89831801D01*
X110764092Y-89759229D01*
X110933426Y-89686658D01*
X111356759Y-89686658D01*
X111526092Y-89759229D01*
X111610759Y-89831801D01*
X111695426Y-89976944D01*
X111695426Y-90339801D01*
X111610759Y-90484944D01*
X111526092Y-90557515D01*
X111356759Y-90630087D01*
X110933426Y-90630087D01*
X110764092Y-90557515D01*
X110679426Y-90484944D01*
X28213768Y-71507434D02*
X28467768Y-71580006D01*
X28891101Y-71580006D01*
X29060434Y-71507434D01*
X29145101Y-71434863D01*
X29229768Y-71289720D01*
X29229768Y-71144577D01*
X29145101Y-70999434D01*
X29060434Y-70926863D01*
X28891101Y-70854291D01*
X28552434Y-70781720D01*
X28383101Y-70709148D01*
X28298434Y-70636577D01*
X28213768Y-70491434D01*
X28213768Y-70346291D01*
X28298434Y-70201148D01*
X28383101Y-70128577D01*
X28552434Y-70056006D01*
X28975768Y-70056006D01*
X29229768Y-70128577D01*
X29822434Y-70056006D02*
X30245767Y-71580006D01*
X30584434Y-70491434D01*
X30923101Y-71580006D01*
X31346434Y-70056006D01*
X31854434Y-70056006D02*
X32955101Y-70056006D01*
X32362434Y-70636577D01*
X32616434Y-70636577D01*
X32785767Y-70709148D01*
X32870434Y-70781720D01*
X32955101Y-70926863D01*
X32955101Y-71289720D01*
X32870434Y-71434863D01*
X32785767Y-71507434D01*
X32616434Y-71580006D01*
X32108434Y-71580006D01*
X31939101Y-71507434D01*
X31854434Y-71434863D01*
X33717100Y-71434863D02*
X33801767Y-71507434D01*
X33717100Y-71580006D01*
X33632434Y-71507434D01*
X33717100Y-71434863D01*
X33717100Y-71580006D01*
X33717100Y-70636577D02*
X33801767Y-70709148D01*
X33717100Y-70781720D01*
X33632434Y-70709148D01*
X33717100Y-70636577D01*
X33717100Y-70781720D01*
X35495101Y-71580006D02*
X34479101Y-71580006D01*
X34987101Y-71580006D02*
X34987101Y-70056006D01*
X34817767Y-70273720D01*
X34648434Y-70418863D01*
X34479101Y-70491434D01*
X47263849Y-71507434D02*
X47517849Y-71580006D01*
X47941182Y-71580006D01*
X48110515Y-71507434D01*
X48195182Y-71434863D01*
X48279849Y-71289720D01*
X48279849Y-71144577D01*
X48195182Y-70999434D01*
X48110515Y-70926863D01*
X47941182Y-70854291D01*
X47602515Y-70781720D01*
X47433182Y-70709148D01*
X47348515Y-70636577D01*
X47263849Y-70491434D01*
X47263849Y-70346291D01*
X47348515Y-70201148D01*
X47433182Y-70128577D01*
X47602515Y-70056006D01*
X48025849Y-70056006D01*
X48279849Y-70128577D01*
X48872515Y-70056006D02*
X49295848Y-71580006D01*
X49634515Y-70491434D01*
X49973182Y-71580006D01*
X50396515Y-70056006D01*
X50904515Y-70056006D02*
X52005182Y-70056006D01*
X51412515Y-70636577D01*
X51666515Y-70636577D01*
X51835848Y-70709148D01*
X51920515Y-70781720D01*
X52005182Y-70926863D01*
X52005182Y-71289720D01*
X51920515Y-71434863D01*
X51835848Y-71507434D01*
X51666515Y-71580006D01*
X51158515Y-71580006D01*
X50989182Y-71507434D01*
X50904515Y-71434863D01*
X52767181Y-71434863D02*
X52851848Y-71507434D01*
X52767181Y-71580006D01*
X52682515Y-71507434D01*
X52767181Y-71434863D01*
X52767181Y-71580006D01*
X52767181Y-70636577D02*
X52851848Y-70709148D01*
X52767181Y-70781720D01*
X52682515Y-70709148D01*
X52767181Y-70636577D01*
X52767181Y-70781720D01*
X53529182Y-70201148D02*
X53613848Y-70128577D01*
X53783182Y-70056006D01*
X54206515Y-70056006D01*
X54375848Y-70128577D01*
X54460515Y-70201148D01*
X54545182Y-70346291D01*
X54545182Y-70491434D01*
X54460515Y-70709148D01*
X53444515Y-71580006D01*
X54545182Y-71580006D01*
X66313931Y-71507434D02*
X66567931Y-71580006D01*
X66991264Y-71580006D01*
X67160597Y-71507434D01*
X67245264Y-71434863D01*
X67329931Y-71289720D01*
X67329931Y-71144577D01*
X67245264Y-70999434D01*
X67160597Y-70926863D01*
X66991264Y-70854291D01*
X66652597Y-70781720D01*
X66483264Y-70709148D01*
X66398597Y-70636577D01*
X66313931Y-70491434D01*
X66313931Y-70346291D01*
X66398597Y-70201148D01*
X66483264Y-70128577D01*
X66652597Y-70056006D01*
X67075931Y-70056006D01*
X67329931Y-70128577D01*
X67922597Y-70056006D02*
X68345930Y-71580006D01*
X68684597Y-70491434D01*
X69023264Y-71580006D01*
X69446597Y-70056006D01*
X69954597Y-70056006D02*
X71055264Y-70056006D01*
X70462597Y-70636577D01*
X70716597Y-70636577D01*
X70885930Y-70709148D01*
X70970597Y-70781720D01*
X71055264Y-70926863D01*
X71055264Y-71289720D01*
X70970597Y-71434863D01*
X70885930Y-71507434D01*
X70716597Y-71580006D01*
X70208597Y-71580006D01*
X70039264Y-71507434D01*
X69954597Y-71434863D01*
X71817263Y-71434863D02*
X71901930Y-71507434D01*
X71817263Y-71580006D01*
X71732597Y-71507434D01*
X71817263Y-71434863D01*
X71817263Y-71580006D01*
X71817263Y-70636577D02*
X71901930Y-70709148D01*
X71817263Y-70781720D01*
X71732597Y-70709148D01*
X71817263Y-70636577D01*
X71817263Y-70781720D01*
X72494597Y-70056006D02*
X73595264Y-70056006D01*
X73002597Y-70636577D01*
X73256597Y-70636577D01*
X73425930Y-70709148D01*
X73510597Y-70781720D01*
X73595264Y-70926863D01*
X73595264Y-71289720D01*
X73510597Y-71434863D01*
X73425930Y-71507434D01*
X73256597Y-71580006D01*
X72748597Y-71580006D01*
X72579264Y-71507434D01*
X72494597Y-71434863D01*
X85364012Y-71507434D02*
X85618012Y-71580006D01*
X86041345Y-71580006D01*
X86210678Y-71507434D01*
X86295345Y-71434863D01*
X86380012Y-71289720D01*
X86380012Y-71144577D01*
X86295345Y-70999434D01*
X86210678Y-70926863D01*
X86041345Y-70854291D01*
X85702678Y-70781720D01*
X85533345Y-70709148D01*
X85448678Y-70636577D01*
X85364012Y-70491434D01*
X85364012Y-70346291D01*
X85448678Y-70201148D01*
X85533345Y-70128577D01*
X85702678Y-70056006D01*
X86126012Y-70056006D01*
X86380012Y-70128577D01*
X86972678Y-70056006D02*
X87396011Y-71580006D01*
X87734678Y-70491434D01*
X88073345Y-71580006D01*
X88496678Y-70056006D01*
X89004678Y-70056006D02*
X90105345Y-70056006D01*
X89512678Y-70636577D01*
X89766678Y-70636577D01*
X89936011Y-70709148D01*
X90020678Y-70781720D01*
X90105345Y-70926863D01*
X90105345Y-71289720D01*
X90020678Y-71434863D01*
X89936011Y-71507434D01*
X89766678Y-71580006D01*
X89258678Y-71580006D01*
X89089345Y-71507434D01*
X89004678Y-71434863D01*
X90867344Y-71434863D02*
X90952011Y-71507434D01*
X90867344Y-71580006D01*
X90782678Y-71507434D01*
X90867344Y-71434863D01*
X90867344Y-71580006D01*
X90867344Y-70636577D02*
X90952011Y-70709148D01*
X90867344Y-70781720D01*
X90782678Y-70709148D01*
X90867344Y-70636577D01*
X90867344Y-70781720D01*
X92476011Y-70564006D02*
X92476011Y-71580006D01*
X92052678Y-69983434D02*
X91629345Y-71072006D01*
X92730011Y-71072006D01*
X104414093Y-71507434D02*
X104668093Y-71580006D01*
X105091426Y-71580006D01*
X105260759Y-71507434D01*
X105345426Y-71434863D01*
X105430093Y-71289720D01*
X105430093Y-71144577D01*
X105345426Y-70999434D01*
X105260759Y-70926863D01*
X105091426Y-70854291D01*
X104752759Y-70781720D01*
X104583426Y-70709148D01*
X104498759Y-70636577D01*
X104414093Y-70491434D01*
X104414093Y-70346291D01*
X104498759Y-70201148D01*
X104583426Y-70128577D01*
X104752759Y-70056006D01*
X105176093Y-70056006D01*
X105430093Y-70128577D01*
X106022759Y-70056006D02*
X106446092Y-71580006D01*
X106784759Y-70491434D01*
X107123426Y-71580006D01*
X107546759Y-70056006D01*
X108054759Y-70056006D02*
X109155426Y-70056006D01*
X108562759Y-70636577D01*
X108816759Y-70636577D01*
X108986092Y-70709148D01*
X109070759Y-70781720D01*
X109155426Y-70926863D01*
X109155426Y-71289720D01*
X109070759Y-71434863D01*
X108986092Y-71507434D01*
X108816759Y-71580006D01*
X108308759Y-71580006D01*
X108139426Y-71507434D01*
X108054759Y-71434863D01*
X109917425Y-71434863D02*
X110002092Y-71507434D01*
X109917425Y-71580006D01*
X109832759Y-71507434D01*
X109917425Y-71434863D01*
X109917425Y-71580006D01*
X109917425Y-70636577D02*
X110002092Y-70709148D01*
X109917425Y-70781720D01*
X109832759Y-70709148D01*
X109917425Y-70636577D01*
X109917425Y-70781720D01*
X111610759Y-70056006D02*
X110764092Y-70056006D01*
X110679426Y-70781720D01*
X110764092Y-70709148D01*
X110933426Y-70636577D01*
X111356759Y-70636577D01*
X111526092Y-70709148D01*
X111610759Y-70781720D01*
X111695426Y-70926863D01*
X111695426Y-71289720D01*
X111610759Y-71434863D01*
X111526092Y-71507434D01*
X111356759Y-71580006D01*
X110933426Y-71580006D01*
X110764092Y-71507434D01*
X110679426Y-71434863D01*
X28213768Y-52457352D02*
X28467768Y-52529924D01*
X28891101Y-52529924D01*
X29060434Y-52457352D01*
X29145101Y-52384781D01*
X29229768Y-52239638D01*
X29229768Y-52094495D01*
X29145101Y-51949352D01*
X29060434Y-51876781D01*
X28891101Y-51804209D01*
X28552434Y-51731638D01*
X28383101Y-51659066D01*
X28298434Y-51586495D01*
X28213768Y-51441352D01*
X28213768Y-51296209D01*
X28298434Y-51151066D01*
X28383101Y-51078495D01*
X28552434Y-51005924D01*
X28975768Y-51005924D01*
X29229768Y-51078495D01*
X29822434Y-51005924D02*
X30245767Y-52529924D01*
X30584434Y-51441352D01*
X30923101Y-52529924D01*
X31346434Y-51005924D01*
X32785767Y-51513924D02*
X32785767Y-52529924D01*
X32362434Y-50933352D02*
X31939101Y-52021924D01*
X33039767Y-52021924D01*
X33717100Y-52384781D02*
X33801767Y-52457352D01*
X33717100Y-52529924D01*
X33632434Y-52457352D01*
X33717100Y-52384781D01*
X33717100Y-52529924D01*
X33717100Y-51586495D02*
X33801767Y-51659066D01*
X33717100Y-51731638D01*
X33632434Y-51659066D01*
X33717100Y-51586495D01*
X33717100Y-51731638D01*
X35495101Y-52529924D02*
X34479101Y-52529924D01*
X34987101Y-52529924D02*
X34987101Y-51005924D01*
X34817767Y-51223638D01*
X34648434Y-51368781D01*
X34479101Y-51441352D01*
X47263849Y-52457352D02*
X47517849Y-52529924D01*
X47941182Y-52529924D01*
X48110515Y-52457352D01*
X48195182Y-52384781D01*
X48279849Y-52239638D01*
X48279849Y-52094495D01*
X48195182Y-51949352D01*
X48110515Y-51876781D01*
X47941182Y-51804209D01*
X47602515Y-51731638D01*
X47433182Y-51659066D01*
X47348515Y-51586495D01*
X47263849Y-51441352D01*
X47263849Y-51296209D01*
X47348515Y-51151066D01*
X47433182Y-51078495D01*
X47602515Y-51005924D01*
X48025849Y-51005924D01*
X48279849Y-51078495D01*
X48872515Y-51005924D02*
X49295848Y-52529924D01*
X49634515Y-51441352D01*
X49973182Y-52529924D01*
X50396515Y-51005924D01*
X51835848Y-51513924D02*
X51835848Y-52529924D01*
X51412515Y-50933352D02*
X50989182Y-52021924D01*
X52089848Y-52021924D01*
X52767181Y-52384781D02*
X52851848Y-52457352D01*
X52767181Y-52529924D01*
X52682515Y-52457352D01*
X52767181Y-52384781D01*
X52767181Y-52529924D01*
X52767181Y-51586495D02*
X52851848Y-51659066D01*
X52767181Y-51731638D01*
X52682515Y-51659066D01*
X52767181Y-51586495D01*
X52767181Y-51731638D01*
X53529182Y-51151066D02*
X53613848Y-51078495D01*
X53783182Y-51005924D01*
X54206515Y-51005924D01*
X54375848Y-51078495D01*
X54460515Y-51151066D01*
X54545182Y-51296209D01*
X54545182Y-51441352D01*
X54460515Y-51659066D01*
X53444515Y-52529924D01*
X54545182Y-52529924D01*
X66313931Y-52457352D02*
X66567931Y-52529924D01*
X66991264Y-52529924D01*
X67160597Y-52457352D01*
X67245264Y-52384781D01*
X67329931Y-52239638D01*
X67329931Y-52094495D01*
X67245264Y-51949352D01*
X67160597Y-51876781D01*
X66991264Y-51804209D01*
X66652597Y-51731638D01*
X66483264Y-51659066D01*
X66398597Y-51586495D01*
X66313931Y-51441352D01*
X66313931Y-51296209D01*
X66398597Y-51151066D01*
X66483264Y-51078495D01*
X66652597Y-51005924D01*
X67075931Y-51005924D01*
X67329931Y-51078495D01*
X67922597Y-51005924D02*
X68345930Y-52529924D01*
X68684597Y-51441352D01*
X69023264Y-52529924D01*
X69446597Y-51005924D01*
X70885930Y-51513924D02*
X70885930Y-52529924D01*
X70462597Y-50933352D02*
X70039264Y-52021924D01*
X71139930Y-52021924D01*
X71817263Y-52384781D02*
X71901930Y-52457352D01*
X71817263Y-52529924D01*
X71732597Y-52457352D01*
X71817263Y-52384781D01*
X71817263Y-52529924D01*
X71817263Y-51586495D02*
X71901930Y-51659066D01*
X71817263Y-51731638D01*
X71732597Y-51659066D01*
X71817263Y-51586495D01*
X71817263Y-51731638D01*
X72494597Y-51005924D02*
X73595264Y-51005924D01*
X73002597Y-51586495D01*
X73256597Y-51586495D01*
X73425930Y-51659066D01*
X73510597Y-51731638D01*
X73595264Y-51876781D01*
X73595264Y-52239638D01*
X73510597Y-52384781D01*
X73425930Y-52457352D01*
X73256597Y-52529924D01*
X72748597Y-52529924D01*
X72579264Y-52457352D01*
X72494597Y-52384781D01*
X85364012Y-52457352D02*
X85618012Y-52529924D01*
X86041345Y-52529924D01*
X86210678Y-52457352D01*
X86295345Y-52384781D01*
X86380012Y-52239638D01*
X86380012Y-52094495D01*
X86295345Y-51949352D01*
X86210678Y-51876781D01*
X86041345Y-51804209D01*
X85702678Y-51731638D01*
X85533345Y-51659066D01*
X85448678Y-51586495D01*
X85364012Y-51441352D01*
X85364012Y-51296209D01*
X85448678Y-51151066D01*
X85533345Y-51078495D01*
X85702678Y-51005924D01*
X86126012Y-51005924D01*
X86380012Y-51078495D01*
X86972678Y-51005924D02*
X87396011Y-52529924D01*
X87734678Y-51441352D01*
X88073345Y-52529924D01*
X88496678Y-51005924D01*
X89936011Y-51513924D02*
X89936011Y-52529924D01*
X89512678Y-50933352D02*
X89089345Y-52021924D01*
X90190011Y-52021924D01*
X90867344Y-52384781D02*
X90952011Y-52457352D01*
X90867344Y-52529924D01*
X90782678Y-52457352D01*
X90867344Y-52384781D01*
X90867344Y-52529924D01*
X90867344Y-51586495D02*
X90952011Y-51659066D01*
X90867344Y-51731638D01*
X90782678Y-51659066D01*
X90867344Y-51586495D01*
X90867344Y-51731638D01*
X92476011Y-51513924D02*
X92476011Y-52529924D01*
X92052678Y-50933352D02*
X91629345Y-52021924D01*
X92730011Y-52021924D01*
X104414093Y-52457352D02*
X104668093Y-52529924D01*
X105091426Y-52529924D01*
X105260759Y-52457352D01*
X105345426Y-52384781D01*
X105430093Y-52239638D01*
X105430093Y-52094495D01*
X105345426Y-51949352D01*
X105260759Y-51876781D01*
X105091426Y-51804209D01*
X104752759Y-51731638D01*
X104583426Y-51659066D01*
X104498759Y-51586495D01*
X104414093Y-51441352D01*
X104414093Y-51296209D01*
X104498759Y-51151066D01*
X104583426Y-51078495D01*
X104752759Y-51005924D01*
X105176093Y-51005924D01*
X105430093Y-51078495D01*
X106022759Y-51005924D02*
X106446092Y-52529924D01*
X106784759Y-51441352D01*
X107123426Y-52529924D01*
X107546759Y-51005924D01*
X108986092Y-51513924D02*
X108986092Y-52529924D01*
X108562759Y-50933352D02*
X108139426Y-52021924D01*
X109240092Y-52021924D01*
X109917425Y-52384781D02*
X110002092Y-52457352D01*
X109917425Y-52529924D01*
X109832759Y-52457352D01*
X109917425Y-52384781D01*
X109917425Y-52529924D01*
X109917425Y-51586495D02*
X110002092Y-51659066D01*
X109917425Y-51731638D01*
X109832759Y-51659066D01*
X109917425Y-51586495D01*
X109917425Y-51731638D01*
X111610759Y-51005924D02*
X110764092Y-51005924D01*
X110679426Y-51731638D01*
X110764092Y-51659066D01*
X110933426Y-51586495D01*
X111356759Y-51586495D01*
X111526092Y-51659066D01*
X111610759Y-51731638D01*
X111695426Y-51876781D01*
X111695426Y-52239638D01*
X111610759Y-52384781D01*
X111526092Y-52457352D01*
X111356759Y-52529924D01*
X110933426Y-52529924D01*
X110764092Y-52457352D01*
X110679426Y-52384781D01*
X123464175Y-128657677D02*
X123718175Y-128730249D01*
X124141508Y-128730249D01*
X124310841Y-128657677D01*
X124395508Y-128585106D01*
X124480175Y-128439963D01*
X124480175Y-128294820D01*
X124395508Y-128149677D01*
X124310841Y-128077106D01*
X124141508Y-128004534D01*
X123802841Y-127931963D01*
X123633508Y-127859391D01*
X123548841Y-127786820D01*
X123464175Y-127641677D01*
X123464175Y-127496534D01*
X123548841Y-127351391D01*
X123633508Y-127278820D01*
X123802841Y-127206249D01*
X124226175Y-127206249D01*
X124480175Y-127278820D01*
X125072841Y-127206249D02*
X125496174Y-128730249D01*
X125834841Y-127641677D01*
X126173508Y-128730249D01*
X126596841Y-127206249D01*
X127612841Y-127206249D02*
X127782174Y-127206249D01*
X127951508Y-127278820D01*
X128036174Y-127351391D01*
X128120841Y-127496534D01*
X128205508Y-127786820D01*
X128205508Y-128149677D01*
X128120841Y-128439963D01*
X128036174Y-128585106D01*
X127951508Y-128657677D01*
X127782174Y-128730249D01*
X127612841Y-128730249D01*
X127443508Y-128657677D01*
X127358841Y-128585106D01*
X127274174Y-128439963D01*
X127189508Y-128149677D01*
X127189508Y-127786820D01*
X127274174Y-127496534D01*
X127358841Y-127351391D01*
X127443508Y-127278820D01*
X127612841Y-127206249D01*
X128967507Y-128585106D02*
X129052174Y-128657677D01*
X128967507Y-128730249D01*
X128882841Y-128657677D01*
X128967507Y-128585106D01*
X128967507Y-128730249D01*
X128967507Y-127786820D02*
X129052174Y-127859391D01*
X128967507Y-127931963D01*
X128882841Y-127859391D01*
X128967507Y-127786820D01*
X128967507Y-127931963D01*
X130576174Y-127206249D02*
X130237508Y-127206249D01*
X130068174Y-127278820D01*
X129983508Y-127351391D01*
X129814174Y-127569106D01*
X129729508Y-127859391D01*
X129729508Y-128439963D01*
X129814174Y-128585106D01*
X129898841Y-128657677D01*
X130068174Y-128730249D01*
X130406841Y-128730249D01*
X130576174Y-128657677D01*
X130660841Y-128585106D01*
X130745508Y-128439963D01*
X130745508Y-128077106D01*
X130660841Y-127931963D01*
X130576174Y-127859391D01*
X130406841Y-127786820D01*
X130068174Y-127786820D01*
X129898841Y-127859391D01*
X129814174Y-127931963D01*
X129729508Y-128077106D01*
X123464175Y-109607596D02*
X123718175Y-109680168D01*
X124141508Y-109680168D01*
X124310841Y-109607596D01*
X124395508Y-109535025D01*
X124480175Y-109389882D01*
X124480175Y-109244739D01*
X124395508Y-109099596D01*
X124310841Y-109027025D01*
X124141508Y-108954453D01*
X123802841Y-108881882D01*
X123633508Y-108809310D01*
X123548841Y-108736739D01*
X123464175Y-108591596D01*
X123464175Y-108446453D01*
X123548841Y-108301310D01*
X123633508Y-108228739D01*
X123802841Y-108156168D01*
X124226175Y-108156168D01*
X124480175Y-108228739D01*
X125072841Y-108156168D02*
X125496174Y-109680168D01*
X125834841Y-108591596D01*
X126173508Y-109680168D01*
X126596841Y-108156168D01*
X128205508Y-109680168D02*
X127189508Y-109680168D01*
X127697508Y-109680168D02*
X127697508Y-108156168D01*
X127528174Y-108373882D01*
X127358841Y-108519025D01*
X127189508Y-108591596D01*
X128967507Y-109535025D02*
X129052174Y-109607596D01*
X128967507Y-109680168D01*
X128882841Y-109607596D01*
X128967507Y-109535025D01*
X128967507Y-109680168D01*
X128967507Y-108736739D02*
X129052174Y-108809310D01*
X128967507Y-108881882D01*
X128882841Y-108809310D01*
X128967507Y-108736739D01*
X128967507Y-108881882D01*
X130576174Y-108156168D02*
X130237508Y-108156168D01*
X130068174Y-108228739D01*
X129983508Y-108301310D01*
X129814174Y-108519025D01*
X129729508Y-108809310D01*
X129729508Y-109389882D01*
X129814174Y-109535025D01*
X129898841Y-109607596D01*
X130068174Y-109680168D01*
X130406841Y-109680168D01*
X130576174Y-109607596D01*
X130660841Y-109535025D01*
X130745508Y-109389882D01*
X130745508Y-109027025D01*
X130660841Y-108881882D01*
X130576174Y-108809310D01*
X130406841Y-108736739D01*
X130068174Y-108736739D01*
X129898841Y-108809310D01*
X129814174Y-108881882D01*
X129729508Y-109027025D01*
X123464175Y-90557515D02*
X123718175Y-90630087D01*
X124141508Y-90630087D01*
X124310841Y-90557515D01*
X124395508Y-90484944D01*
X124480175Y-90339801D01*
X124480175Y-90194658D01*
X124395508Y-90049515D01*
X124310841Y-89976944D01*
X124141508Y-89904372D01*
X123802841Y-89831801D01*
X123633508Y-89759229D01*
X123548841Y-89686658D01*
X123464175Y-89541515D01*
X123464175Y-89396372D01*
X123548841Y-89251229D01*
X123633508Y-89178658D01*
X123802841Y-89106087D01*
X124226175Y-89106087D01*
X124480175Y-89178658D01*
X125072841Y-89106087D02*
X125496174Y-90630087D01*
X125834841Y-89541515D01*
X126173508Y-90630087D01*
X126596841Y-89106087D01*
X127189508Y-89251229D02*
X127274174Y-89178658D01*
X127443508Y-89106087D01*
X127866841Y-89106087D01*
X128036174Y-89178658D01*
X128120841Y-89251229D01*
X128205508Y-89396372D01*
X128205508Y-89541515D01*
X128120841Y-89759229D01*
X127104841Y-90630087D01*
X128205508Y-90630087D01*
X128967507Y-90484944D02*
X129052174Y-90557515D01*
X128967507Y-90630087D01*
X128882841Y-90557515D01*
X128967507Y-90484944D01*
X128967507Y-90630087D01*
X128967507Y-89686658D02*
X129052174Y-89759229D01*
X128967507Y-89831801D01*
X128882841Y-89759229D01*
X128967507Y-89686658D01*
X128967507Y-89831801D01*
X130576174Y-89106087D02*
X130237508Y-89106087D01*
X130068174Y-89178658D01*
X129983508Y-89251229D01*
X129814174Y-89468944D01*
X129729508Y-89759229D01*
X129729508Y-90339801D01*
X129814174Y-90484944D01*
X129898841Y-90557515D01*
X130068174Y-90630087D01*
X130406841Y-90630087D01*
X130576174Y-90557515D01*
X130660841Y-90484944D01*
X130745508Y-90339801D01*
X130745508Y-89976944D01*
X130660841Y-89831801D01*
X130576174Y-89759229D01*
X130406841Y-89686658D01*
X130068174Y-89686658D01*
X129898841Y-89759229D01*
X129814174Y-89831801D01*
X129729508Y-89976944D01*
X123464175Y-71507434D02*
X123718175Y-71580006D01*
X124141508Y-71580006D01*
X124310841Y-71507434D01*
X124395508Y-71434863D01*
X124480175Y-71289720D01*
X124480175Y-71144577D01*
X124395508Y-70999434D01*
X124310841Y-70926863D01*
X124141508Y-70854291D01*
X123802841Y-70781720D01*
X123633508Y-70709148D01*
X123548841Y-70636577D01*
X123464175Y-70491434D01*
X123464175Y-70346291D01*
X123548841Y-70201148D01*
X123633508Y-70128577D01*
X123802841Y-70056006D01*
X124226175Y-70056006D01*
X124480175Y-70128577D01*
X125072841Y-70056006D02*
X125496174Y-71580006D01*
X125834841Y-70491434D01*
X126173508Y-71580006D01*
X126596841Y-70056006D01*
X127104841Y-70056006D02*
X128205508Y-70056006D01*
X127612841Y-70636577D01*
X127866841Y-70636577D01*
X128036174Y-70709148D01*
X128120841Y-70781720D01*
X128205508Y-70926863D01*
X128205508Y-71289720D01*
X128120841Y-71434863D01*
X128036174Y-71507434D01*
X127866841Y-71580006D01*
X127358841Y-71580006D01*
X127189508Y-71507434D01*
X127104841Y-71434863D01*
X128967507Y-71434863D02*
X129052174Y-71507434D01*
X128967507Y-71580006D01*
X128882841Y-71507434D01*
X128967507Y-71434863D01*
X128967507Y-71580006D01*
X128967507Y-70636577D02*
X129052174Y-70709148D01*
X128967507Y-70781720D01*
X128882841Y-70709148D01*
X128967507Y-70636577D01*
X128967507Y-70781720D01*
X130576174Y-70056006D02*
X130237508Y-70056006D01*
X130068174Y-70128577D01*
X129983508Y-70201148D01*
X129814174Y-70418863D01*
X129729508Y-70709148D01*
X129729508Y-71289720D01*
X129814174Y-71434863D01*
X129898841Y-71507434D01*
X130068174Y-71580006D01*
X130406841Y-71580006D01*
X130576174Y-71507434D01*
X130660841Y-71434863D01*
X130745508Y-71289720D01*
X130745508Y-70926863D01*
X130660841Y-70781720D01*
X130576174Y-70709148D01*
X130406841Y-70636577D01*
X130068174Y-70636577D01*
X129898841Y-70709148D01*
X129814174Y-70781720D01*
X129729508Y-70926863D01*
X123464175Y-52457352D02*
X123718175Y-52529924D01*
X124141508Y-52529924D01*
X124310841Y-52457352D01*
X124395508Y-52384781D01*
X124480175Y-52239638D01*
X124480175Y-52094495D01*
X124395508Y-51949352D01*
X124310841Y-51876781D01*
X124141508Y-51804209D01*
X123802841Y-51731638D01*
X123633508Y-51659066D01*
X123548841Y-51586495D01*
X123464175Y-51441352D01*
X123464175Y-51296209D01*
X123548841Y-51151066D01*
X123633508Y-51078495D01*
X123802841Y-51005924D01*
X124226175Y-51005924D01*
X124480175Y-51078495D01*
X125072841Y-51005924D02*
X125496174Y-52529924D01*
X125834841Y-51441352D01*
X126173508Y-52529924D01*
X126596841Y-51005924D01*
X128036174Y-51513924D02*
X128036174Y-52529924D01*
X127612841Y-50933352D02*
X127189508Y-52021924D01*
X128290174Y-52021924D01*
X128967507Y-52384781D02*
X129052174Y-52457352D01*
X128967507Y-52529924D01*
X128882841Y-52457352D01*
X128967507Y-52384781D01*
X128967507Y-52529924D01*
X128967507Y-51586495D02*
X129052174Y-51659066D01*
X128967507Y-51731638D01*
X128882841Y-51659066D01*
X128967507Y-51586495D01*
X128967507Y-51731638D01*
X130576174Y-51005924D02*
X130237508Y-51005924D01*
X130068174Y-51078495D01*
X129983508Y-51151066D01*
X129814174Y-51368781D01*
X129729508Y-51659066D01*
X129729508Y-52239638D01*
X129814174Y-52384781D01*
X129898841Y-52457352D01*
X130068174Y-52529924D01*
X130406841Y-52529924D01*
X130576174Y-52457352D01*
X130660841Y-52384781D01*
X130745508Y-52239638D01*
X130745508Y-51876781D01*
X130660841Y-51731638D01*
X130576174Y-51659066D01*
X130406841Y-51586495D01*
X130068174Y-51586495D01*
X129898841Y-51659066D01*
X129814174Y-51731638D01*
X129729508Y-51876781D01*
D11*
X96170090Y-30408121D02*
X95170090Y-30408121D01*
X95170090Y-30170026D01*
X95217709Y-30027168D01*
X95312947Y-29931930D01*
X95408185Y-29884311D01*
X95598661Y-29836692D01*
X95741519Y-29836692D01*
X95931995Y-29884311D01*
X96027233Y-29931930D01*
X96122471Y-30027168D01*
X96170090Y-30170026D01*
X96170090Y-30408121D01*
X95170090Y-29503359D02*
X95170090Y-28884311D01*
X95551042Y-29217645D01*
X95551042Y-29074787D01*
X95598661Y-28979549D01*
X95646280Y-28931930D01*
X95741519Y-28884311D01*
X95979614Y-28884311D01*
X96074852Y-28931930D01*
X96122471Y-28979549D01*
X96170090Y-29074787D01*
X96170090Y-29360502D01*
X96122471Y-29455740D01*
X96074852Y-29503359D01*
X96170090Y-27931930D02*
X96170090Y-28503359D01*
X96170090Y-28217645D02*
X95170090Y-28217645D01*
X95312947Y-28312883D01*
X95408185Y-28408121D01*
X95455804Y-28503359D01*
X99786390Y-30384723D02*
X98786390Y-30384723D01*
X98786390Y-30146628D01*
X98834009Y-30003770D01*
X98929247Y-29908532D01*
X99024485Y-29860913D01*
X99214961Y-29813294D01*
X99357819Y-29813294D01*
X99548295Y-29860913D01*
X99643533Y-29908532D01*
X99738771Y-30003770D01*
X99786390Y-30146628D01*
X99786390Y-30384723D01*
X98786390Y-29479961D02*
X98786390Y-28860913D01*
X99167342Y-29194247D01*
X99167342Y-29051389D01*
X99214961Y-28956151D01*
X99262580Y-28908532D01*
X99357819Y-28860913D01*
X99595914Y-28860913D01*
X99691152Y-28908532D01*
X99738771Y-28956151D01*
X99786390Y-29051389D01*
X99786390Y-29337104D01*
X99738771Y-29432342D01*
X99691152Y-29479961D01*
X98881628Y-28479961D02*
X98834009Y-28432342D01*
X98786390Y-28337104D01*
X98786390Y-28099008D01*
X98834009Y-28003770D01*
X98881628Y-27956151D01*
X98976866Y-27908532D01*
X99072104Y-27908532D01*
X99214961Y-27956151D01*
X99786390Y-28527580D01*
X99786390Y-27908532D01*
X103302410Y-30408121D02*
X102302410Y-30408121D01*
X102302410Y-30170026D01*
X102350029Y-30027168D01*
X102445267Y-29931930D01*
X102540505Y-29884311D01*
X102730981Y-29836692D01*
X102873839Y-29836692D01*
X103064315Y-29884311D01*
X103159553Y-29931930D01*
X103254791Y-30027168D01*
X103302410Y-30170026D01*
X103302410Y-30408121D01*
X102302410Y-29503359D02*
X102302410Y-28884311D01*
X102683362Y-29217645D01*
X102683362Y-29074787D01*
X102730981Y-28979549D01*
X102778600Y-28931930D01*
X102873839Y-28884311D01*
X103111934Y-28884311D01*
X103207172Y-28931930D01*
X103254791Y-28979549D01*
X103302410Y-29074787D01*
X103302410Y-29360502D01*
X103254791Y-29455740D01*
X103207172Y-29503359D01*
X102302410Y-28550978D02*
X102302410Y-27931930D01*
X102683362Y-28265264D01*
X102683362Y-28122406D01*
X102730981Y-28027168D01*
X102778600Y-27979549D01*
X102873839Y-27931930D01*
X103111934Y-27931930D01*
X103207172Y-27979549D01*
X103254791Y-28027168D01*
X103302410Y-28122406D01*
X103302410Y-28408121D01*
X103254791Y-28503359D01*
X103207172Y-28550978D01*
X120580476Y-21938381D02*
X120580476Y-22747905D01*
X120628095Y-22843143D01*
X120675714Y-22890762D01*
X120770952Y-22938381D01*
X120961429Y-22938381D01*
X121056667Y-22890762D01*
X121104286Y-22843143D01*
X121151905Y-22747905D01*
X121151905Y-21938381D01*
X121580476Y-22890762D02*
X121723333Y-22938381D01*
X121961429Y-22938381D01*
X122056667Y-22890762D01*
X122104286Y-22843143D01*
X122151905Y-22747905D01*
X122151905Y-22652667D01*
X122104286Y-22557429D01*
X122056667Y-22509810D01*
X121961429Y-22462190D01*
X121770952Y-22414571D01*
X121675714Y-22366952D01*
X121628095Y-22319333D01*
X121580476Y-22224095D01*
X121580476Y-22128857D01*
X121628095Y-22033619D01*
X121675714Y-21986000D01*
X121770952Y-21938381D01*
X122009048Y-21938381D01*
X122151905Y-21986000D01*
X122913810Y-22414571D02*
X123056667Y-22462190D01*
X123104286Y-22509810D01*
X123151905Y-22605048D01*
X123151905Y-22747905D01*
X123104286Y-22843143D01*
X123056667Y-22890762D01*
X122961429Y-22938381D01*
X122580476Y-22938381D01*
X122580476Y-21938381D01*
X122913810Y-21938381D01*
X123009048Y-21986000D01*
X123056667Y-22033619D01*
X123104286Y-22128857D01*
X123104286Y-22224095D01*
X123056667Y-22319333D01*
X123009048Y-22366952D01*
X122913810Y-22414571D01*
X122580476Y-22414571D01*
X124151905Y-22843143D02*
X124104286Y-22890762D01*
X123961429Y-22938381D01*
X123866191Y-22938381D01*
X123723333Y-22890762D01*
X123628095Y-22795524D01*
X123580476Y-22700286D01*
X123532857Y-22509810D01*
X123532857Y-22366952D01*
X123580476Y-22176476D01*
X123628095Y-22081238D01*
X123723333Y-21986000D01*
X123866191Y-21938381D01*
X123961429Y-21938381D01*
X124104286Y-21986000D01*
X124151905Y-22033619D01*
X124770952Y-21938381D02*
X124961429Y-21938381D01*
X125056667Y-21986000D01*
X125151905Y-22081238D01*
X125199524Y-22271714D01*
X125199524Y-22605048D01*
X125151905Y-22795524D01*
X125056667Y-22890762D01*
X124961429Y-22938381D01*
X124770952Y-22938381D01*
X124675714Y-22890762D01*
X124580476Y-22795524D01*
X124532857Y-22605048D01*
X124532857Y-22271714D01*
X124580476Y-22081238D01*
X124675714Y-21986000D01*
X124770952Y-21938381D01*
X125628095Y-22938381D02*
X125628095Y-21938381D01*
X126199524Y-22938381D01*
X126199524Y-21938381D01*
X126675714Y-22938381D02*
X126675714Y-21938381D01*
X127247143Y-22938381D01*
X127247143Y-21938381D01*
X128247143Y-22938381D02*
X127675714Y-22938381D01*
X127961428Y-22938381D02*
X127961428Y-21938381D01*
X127866190Y-22081238D01*
X127770952Y-22176476D01*
X127675714Y-22224095D01*
X76314603Y-23787638D02*
X76266984Y-23835257D01*
X76124127Y-23882876D01*
X76028889Y-23882876D01*
X75886031Y-23835257D01*
X75790793Y-23740019D01*
X75743174Y-23644781D01*
X75695555Y-23454305D01*
X75695555Y-23311447D01*
X75743174Y-23120971D01*
X75790793Y-23025733D01*
X75886031Y-22930495D01*
X76028889Y-22882876D01*
X76124127Y-22882876D01*
X76266984Y-22930495D01*
X76314603Y-22978114D01*
X76647936Y-22882876D02*
X77266984Y-22882876D01*
X76933650Y-23263828D01*
X77076508Y-23263828D01*
X77171746Y-23311447D01*
X77219365Y-23359066D01*
X77266984Y-23454305D01*
X77266984Y-23692400D01*
X77219365Y-23787638D01*
X77171746Y-23835257D01*
X77076508Y-23882876D01*
X76790793Y-23882876D01*
X76695555Y-23835257D01*
X76647936Y-23787638D01*
X43267334Y-26387143D02*
X43219715Y-26434762D01*
X43076858Y-26482381D01*
X42981620Y-26482381D01*
X42838762Y-26434762D01*
X42743524Y-26339524D01*
X42695905Y-26244286D01*
X42648286Y-26053810D01*
X42648286Y-25910952D01*
X42695905Y-25720476D01*
X42743524Y-25625238D01*
X42838762Y-25530000D01*
X42981620Y-25482381D01*
X43076858Y-25482381D01*
X43219715Y-25530000D01*
X43267334Y-25577619D01*
X44124477Y-25815714D02*
X44124477Y-26482381D01*
X43886381Y-25434762D02*
X43648286Y-26149048D01*
X44267334Y-26149048D01*
X46209143Y-16422666D02*
X46256762Y-16470285D01*
X46304381Y-16613142D01*
X46304381Y-16708380D01*
X46256762Y-16851238D01*
X46161524Y-16946476D01*
X46066286Y-16994095D01*
X45875810Y-17041714D01*
X45732952Y-17041714D01*
X45542476Y-16994095D01*
X45447238Y-16946476D01*
X45352000Y-16851238D01*
X45304381Y-16708380D01*
X45304381Y-16613142D01*
X45352000Y-16470285D01*
X45399619Y-16422666D01*
X45304381Y-15517904D02*
X45304381Y-15994095D01*
X45780571Y-16041714D01*
X45732952Y-15994095D01*
X45685333Y-15898857D01*
X45685333Y-15660761D01*
X45732952Y-15565523D01*
X45780571Y-15517904D01*
X45875810Y-15470285D01*
X46113905Y-15470285D01*
X46209143Y-15517904D01*
X46256762Y-15565523D01*
X46304381Y-15660761D01*
X46304381Y-15898857D01*
X46256762Y-15994095D01*
X46209143Y-16041714D01*
X43211454Y-35317783D02*
X43163835Y-35365402D01*
X43020978Y-35413021D01*
X42925740Y-35413021D01*
X42782882Y-35365402D01*
X42687644Y-35270164D01*
X42640025Y-35174926D01*
X42592406Y-34984450D01*
X42592406Y-34841592D01*
X42640025Y-34651116D01*
X42687644Y-34555878D01*
X42782882Y-34460640D01*
X42925740Y-34413021D01*
X43020978Y-34413021D01*
X43163835Y-34460640D01*
X43211454Y-34508259D01*
X44068597Y-34413021D02*
X43878120Y-34413021D01*
X43782882Y-34460640D01*
X43735263Y-34508259D01*
X43640025Y-34651116D01*
X43592406Y-34841592D01*
X43592406Y-35222545D01*
X43640025Y-35317783D01*
X43687644Y-35365402D01*
X43782882Y-35413021D01*
X43973359Y-35413021D01*
X44068597Y-35365402D01*
X44116216Y-35317783D01*
X44163835Y-35222545D01*
X44163835Y-34984450D01*
X44116216Y-34889211D01*
X44068597Y-34841592D01*
X43973359Y-34793973D01*
X43782882Y-34793973D01*
X43687644Y-34841592D01*
X43640025Y-34889211D01*
X43592406Y-34984450D01*
X65543783Y-38556226D02*
X65591402Y-38603845D01*
X65639021Y-38746702D01*
X65639021Y-38841940D01*
X65591402Y-38984798D01*
X65496164Y-39080036D01*
X65400926Y-39127655D01*
X65210450Y-39175274D01*
X65067592Y-39175274D01*
X64877116Y-39127655D01*
X64781878Y-39080036D01*
X64686640Y-38984798D01*
X64639021Y-38841940D01*
X64639021Y-38746702D01*
X64686640Y-38603845D01*
X64734259Y-38556226D01*
X64639021Y-38222893D02*
X64639021Y-37556226D01*
X65639021Y-37984798D01*
X53193654Y-28998263D02*
X53146035Y-29045882D01*
X53003178Y-29093501D01*
X52907940Y-29093501D01*
X52765082Y-29045882D01*
X52669844Y-28950644D01*
X52622225Y-28855406D01*
X52574606Y-28664930D01*
X52574606Y-28522072D01*
X52622225Y-28331596D01*
X52669844Y-28236358D01*
X52765082Y-28141120D01*
X52907940Y-28093501D01*
X53003178Y-28093501D01*
X53146035Y-28141120D01*
X53193654Y-28188739D01*
X53765082Y-28522072D02*
X53669844Y-28474453D01*
X53622225Y-28426834D01*
X53574606Y-28331596D01*
X53574606Y-28283977D01*
X53622225Y-28188739D01*
X53669844Y-28141120D01*
X53765082Y-28093501D01*
X53955559Y-28093501D01*
X54050797Y-28141120D01*
X54098416Y-28188739D01*
X54146035Y-28283977D01*
X54146035Y-28331596D01*
X54098416Y-28426834D01*
X54050797Y-28474453D01*
X53955559Y-28522072D01*
X53765082Y-28522072D01*
X53669844Y-28569691D01*
X53622225Y-28617310D01*
X53574606Y-28712549D01*
X53574606Y-28903025D01*
X53622225Y-28998263D01*
X53669844Y-29045882D01*
X53765082Y-29093501D01*
X53955559Y-29093501D01*
X54050797Y-29045882D01*
X54098416Y-28998263D01*
X54146035Y-28903025D01*
X54146035Y-28712549D01*
X54098416Y-28617310D01*
X54050797Y-28569691D01*
X53955559Y-28522072D01*
X43291334Y-17580963D02*
X43243715Y-17628582D01*
X43100858Y-17676201D01*
X43005620Y-17676201D01*
X42862762Y-17628582D01*
X42767524Y-17533344D01*
X42719905Y-17438106D01*
X42672286Y-17247630D01*
X42672286Y-17104772D01*
X42719905Y-16914296D01*
X42767524Y-16819058D01*
X42862762Y-16723820D01*
X43005620Y-16676201D01*
X43100858Y-16676201D01*
X43243715Y-16723820D01*
X43291334Y-16771439D01*
X44053239Y-17152391D02*
X44196096Y-17200010D01*
X44243715Y-17247630D01*
X44291334Y-17342868D01*
X44291334Y-17485725D01*
X44243715Y-17580963D01*
X44196096Y-17628582D01*
X44100858Y-17676201D01*
X43719905Y-17676201D01*
X43719905Y-16676201D01*
X44053239Y-16676201D01*
X44148477Y-16723820D01*
X44196096Y-16771439D01*
X44243715Y-16866677D01*
X44243715Y-16961915D01*
X44196096Y-17057153D01*
X44148477Y-17104772D01*
X44053239Y-17152391D01*
X43719905Y-17152391D01*
X44719905Y-16676201D02*
X44719905Y-17485725D01*
X44767524Y-17580963D01*
X44815143Y-17628582D01*
X44910381Y-17676201D01*
X45100858Y-17676201D01*
X45196096Y-17628582D01*
X45243715Y-17580963D01*
X45291334Y-17485725D01*
X45291334Y-16676201D01*
X45719905Y-17628582D02*
X45862762Y-17676201D01*
X46100858Y-17676201D01*
X46196096Y-17628582D01*
X46243715Y-17580963D01*
X46291334Y-17485725D01*
X46291334Y-17390487D01*
X46243715Y-17295249D01*
X46196096Y-17247630D01*
X46100858Y-17200010D01*
X45910381Y-17152391D01*
X45815143Y-17104772D01*
X45767524Y-17057153D01*
X45719905Y-16961915D01*
X45719905Y-16866677D01*
X45767524Y-16771439D01*
X45815143Y-16723820D01*
X45910381Y-16676201D01*
X46148477Y-16676201D01*
X46291334Y-16723820D01*
X47243715Y-17676201D02*
X46672286Y-17676201D01*
X46958000Y-17676201D02*
X46958000Y-16676201D01*
X46862762Y-16819058D01*
X46767524Y-16914296D01*
X46672286Y-16961915D01*
X106581121Y-31581386D02*
X106104930Y-31914720D01*
X106581121Y-32152815D02*
X105581121Y-32152815D01*
X105581121Y-31771862D01*
X105628740Y-31676624D01*
X105676359Y-31629005D01*
X105771597Y-31581386D01*
X105914454Y-31581386D01*
X106009692Y-31629005D01*
X106057311Y-31676624D01*
X106104930Y-31771862D01*
X106104930Y-32152815D01*
X106581121Y-30629005D02*
X106581121Y-31200434D01*
X106581121Y-30914720D02*
X105581121Y-30914720D01*
X105723978Y-31009958D01*
X105819216Y-31105196D01*
X105866835Y-31200434D01*
X91812947Y-28277236D02*
X91479613Y-27801045D01*
X91241518Y-28277236D02*
X91241518Y-27277236D01*
X91622471Y-27277236D01*
X91717709Y-27324855D01*
X91765328Y-27372474D01*
X91812947Y-27467712D01*
X91812947Y-27610569D01*
X91765328Y-27705807D01*
X91717709Y-27753426D01*
X91622471Y-27801045D01*
X91241518Y-27801045D01*
X92003423Y-28372474D02*
X92765328Y-28372474D01*
X93479614Y-28277236D02*
X93003423Y-28277236D01*
X93003423Y-27277236D01*
X93812947Y-27753426D02*
X94146281Y-27753426D01*
X94289138Y-28277236D02*
X93812947Y-28277236D01*
X93812947Y-27277236D01*
X94289138Y-27277236D01*
X94717709Y-28277236D02*
X94717709Y-27277236D01*
X94955804Y-27277236D01*
X95098662Y-27324855D01*
X95193900Y-27420093D01*
X95241519Y-27515331D01*
X95289138Y-27705807D01*
X95289138Y-27848665D01*
X95241519Y-28039141D01*
X95193900Y-28134379D01*
X95098662Y-28229617D01*
X94955804Y-28277236D01*
X94717709Y-28277236D01*
X96241519Y-28277236D02*
X95670090Y-28277236D01*
X95955804Y-28277236D02*
X95955804Y-27277236D01*
X95860566Y-27420093D01*
X95765328Y-27515331D01*
X95670090Y-27562950D01*
X95429247Y-28248585D02*
X95095913Y-27772394D01*
X94857818Y-28248585D02*
X94857818Y-27248585D01*
X95238771Y-27248585D01*
X95334009Y-27296204D01*
X95381628Y-27343823D01*
X95429247Y-27439061D01*
X95429247Y-27581918D01*
X95381628Y-27677156D01*
X95334009Y-27724775D01*
X95238771Y-27772394D01*
X94857818Y-27772394D01*
X95619723Y-28343823D02*
X96381628Y-28343823D01*
X97095914Y-28248585D02*
X96619723Y-28248585D01*
X96619723Y-27248585D01*
X97429247Y-27724775D02*
X97762581Y-27724775D01*
X97905438Y-28248585D02*
X97429247Y-28248585D01*
X97429247Y-27248585D01*
X97905438Y-27248585D01*
X98334009Y-28248585D02*
X98334009Y-27248585D01*
X98572104Y-27248585D01*
X98714962Y-27296204D01*
X98810200Y-27391442D01*
X98857819Y-27486680D01*
X98905438Y-27677156D01*
X98905438Y-27820014D01*
X98857819Y-28010490D01*
X98810200Y-28105728D01*
X98714962Y-28200966D01*
X98572104Y-28248585D01*
X98334009Y-28248585D01*
X99286390Y-27343823D02*
X99334009Y-27296204D01*
X99429247Y-27248585D01*
X99667343Y-27248585D01*
X99762581Y-27296204D01*
X99810200Y-27343823D01*
X99857819Y-27439061D01*
X99857819Y-27534299D01*
X99810200Y-27677156D01*
X99238771Y-28248585D01*
X99857819Y-28248585D01*
X98945267Y-28277236D02*
X98611933Y-27801045D01*
X98373838Y-28277236D02*
X98373838Y-27277236D01*
X98754791Y-27277236D01*
X98850029Y-27324855D01*
X98897648Y-27372474D01*
X98945267Y-27467712D01*
X98945267Y-27610569D01*
X98897648Y-27705807D01*
X98850029Y-27753426D01*
X98754791Y-27801045D01*
X98373838Y-27801045D01*
X99135743Y-28372474D02*
X99897648Y-28372474D01*
X100611934Y-28277236D02*
X100135743Y-28277236D01*
X100135743Y-27277236D01*
X100945267Y-27753426D02*
X101278601Y-27753426D01*
X101421458Y-28277236D02*
X100945267Y-28277236D01*
X100945267Y-27277236D01*
X101421458Y-27277236D01*
X101850029Y-28277236D02*
X101850029Y-27277236D01*
X102088124Y-27277236D01*
X102230982Y-27324855D01*
X102326220Y-27420093D01*
X102373839Y-27515331D01*
X102421458Y-27705807D01*
X102421458Y-27848665D01*
X102373839Y-28039141D01*
X102326220Y-28134379D01*
X102230982Y-28229617D01*
X102088124Y-28277236D01*
X101850029Y-28277236D01*
X102754791Y-27277236D02*
X103373839Y-27277236D01*
X103040505Y-27658188D01*
X103183363Y-27658188D01*
X103278601Y-27705807D01*
X103326220Y-27753426D01*
X103373839Y-27848665D01*
X103373839Y-28086760D01*
X103326220Y-28181998D01*
X103278601Y-28229617D01*
X103183363Y-28277236D01*
X102897648Y-28277236D01*
X102802410Y-28229617D01*
X102754791Y-28181998D01*
X114022571Y-27030762D02*
X114165428Y-27078381D01*
X114403524Y-27078381D01*
X114498762Y-27030762D01*
X114546381Y-26983143D01*
X114594000Y-26887905D01*
X114594000Y-26792667D01*
X114546381Y-26697429D01*
X114498762Y-26649810D01*
X114403524Y-26602190D01*
X114213047Y-26554571D01*
X114117809Y-26506952D01*
X114070190Y-26459333D01*
X114022571Y-26364095D01*
X114022571Y-26268857D01*
X114070190Y-26173619D01*
X114117809Y-26126000D01*
X114213047Y-26078381D01*
X114451143Y-26078381D01*
X114594000Y-26126000D01*
X114927333Y-26078381D02*
X115165428Y-27078381D01*
X115355905Y-26364095D01*
X115546381Y-27078381D01*
X115784476Y-26078381D01*
X115927333Y-27173619D02*
X116689238Y-27173619D01*
X117498762Y-27078381D02*
X117165428Y-26602190D01*
X116927333Y-27078381D02*
X116927333Y-26078381D01*
X117308286Y-26078381D01*
X117403524Y-26126000D01*
X117451143Y-26173619D01*
X117498762Y-26268857D01*
X117498762Y-26411714D01*
X117451143Y-26506952D01*
X117403524Y-26554571D01*
X117308286Y-26602190D01*
X116927333Y-26602190D01*
X117879714Y-27030762D02*
X118022571Y-27078381D01*
X118260667Y-27078381D01*
X118355905Y-27030762D01*
X118403524Y-26983143D01*
X118451143Y-26887905D01*
X118451143Y-26792667D01*
X118403524Y-26697429D01*
X118355905Y-26649810D01*
X118260667Y-26602190D01*
X118070190Y-26554571D01*
X117974952Y-26506952D01*
X117927333Y-26459333D01*
X117879714Y-26364095D01*
X117879714Y-26268857D01*
X117927333Y-26173619D01*
X117974952Y-26126000D01*
X118070190Y-26078381D01*
X118308286Y-26078381D01*
X118451143Y-26126000D01*
X118736857Y-26078381D02*
X119308286Y-26078381D01*
X119022571Y-27078381D02*
X119022571Y-26078381D01*
X120165429Y-27078381D02*
X119594000Y-27078381D01*
X119879714Y-27078381D02*
X119879714Y-26078381D01*
X119784476Y-26221238D01*
X119689238Y-26316476D01*
X119594000Y-26364095D01*
X135318667Y-14168381D02*
X134985333Y-13692190D01*
X134747238Y-14168381D02*
X134747238Y-13168381D01*
X135128191Y-13168381D01*
X135223429Y-13216000D01*
X135271048Y-13263619D01*
X135318667Y-13358857D01*
X135318667Y-13501714D01*
X135271048Y-13596952D01*
X135223429Y-13644571D01*
X135128191Y-13692190D01*
X134747238Y-13692190D01*
X135747238Y-13644571D02*
X136080572Y-13644571D01*
X136223429Y-14168381D02*
X135747238Y-14168381D01*
X135747238Y-13168381D01*
X136223429Y-13168381D01*
X136985334Y-13644571D02*
X136652000Y-13644571D01*
X136652000Y-14168381D02*
X136652000Y-13168381D01*
X137128191Y-13168381D01*
X137652000Y-13168381D02*
X137652000Y-13406476D01*
X137413905Y-13311238D02*
X137652000Y-13406476D01*
X137890096Y-13311238D01*
X137509143Y-13596952D02*
X137652000Y-13406476D01*
X137794858Y-13596952D01*
X138413905Y-13168381D02*
X138413905Y-13406476D01*
X138175810Y-13311238D02*
X138413905Y-13406476D01*
X138652001Y-13311238D01*
X138271048Y-13596952D02*
X138413905Y-13406476D01*
X138556763Y-13596952D01*
M02*
