M48
INCH,TZ
T1C0.157
%
G90
G05
T1
X1.2539Y-1.9102
X1.2539Y-2.6602
X1.2539Y-3.4102
X1.2539Y-4.1602
X1.2539Y-4.9102
X2.0039Y-1.9102
X2.0039Y-2.6602
X2.0039Y-3.4102
X2.0039Y-4.1602
X2.0039Y-4.9102
X2.7539Y-1.9102
X2.7539Y-2.6602
X2.7539Y-3.4102
X2.7539Y-4.1602
X2.7539Y-4.9102
X3.5039Y-1.9102
X3.5039Y-2.6602
X3.5039Y-3.4102
X3.5039Y-4.1602
X3.5039Y-4.9102
X4.2539Y-1.9102
X4.2539Y-2.6602
X4.2539Y-3.4102
X4.2539Y-4.1602
X4.2539Y-4.9102
X5.0039Y-1.9102
X5.0039Y-2.6602
X5.0039Y-3.4102
X5.0039Y-4.1602
X5.0039Y-4.9102
T0
M30
