G04 #@! TF.FileFunction,Paste,Bot*
%FSLAX46Y46*%
G04 Gerber Fmt 4.6, Leading zero omitted, Abs format (unit mm)*
G04 Created by KiCad (PCBNEW 4.0.3-stable) date 08/13/16 09:37:38*
%MOMM*%
%LPD*%
G01*
G04 APERTURE LIST*
%ADD10C,0.100000*%
%ADD11R,0.500000X1.500000*%
%ADD12R,1.500000X0.500000*%
%ADD13R,0.838200X0.838200*%
%ADD14R,0.900000X1.000000*%
%ADD15R,0.990000X0.300000*%
%ADD16R,0.500000X2.300000*%
%ADD17R,0.800000X0.750000*%
%ADD18R,1.800860X2.499360*%
%ADD19R,0.500000X0.900000*%
G04 APERTURE END LIST*
D10*
D11*
X50489949Y-22502295D03*
X51289949Y-22502295D03*
X52089949Y-22502295D03*
X52889949Y-22502295D03*
X53689949Y-22502295D03*
X54489949Y-22502295D03*
X55289949Y-22502295D03*
X56089949Y-22502295D03*
X56889949Y-22502295D03*
X57689949Y-22502295D03*
X58489949Y-22502295D03*
D12*
X60289949Y-24302295D03*
X60289949Y-25102295D03*
X60289949Y-25902295D03*
X60289949Y-26702295D03*
X60289949Y-27502295D03*
X60289949Y-28302295D03*
X60289949Y-29102295D03*
X60289949Y-29902295D03*
X60289949Y-30702295D03*
X60289949Y-31502295D03*
X60289949Y-32302295D03*
D11*
X58489949Y-34102295D03*
X57689949Y-34102295D03*
X56889949Y-34102295D03*
X56089949Y-34102295D03*
X55289949Y-34102295D03*
X54489949Y-34102295D03*
X53689949Y-34102295D03*
X52889949Y-34102295D03*
X52089949Y-34102295D03*
X51289949Y-34102295D03*
X50489949Y-34102295D03*
D12*
X48689949Y-32302295D03*
X48689949Y-31502295D03*
X48689949Y-30702295D03*
X48689949Y-29902295D03*
X48689949Y-29102295D03*
X48689949Y-28302295D03*
X48689949Y-27502295D03*
X48689949Y-26702295D03*
X48689949Y-25902295D03*
X48689949Y-25102295D03*
X48689949Y-24302295D03*
D13*
X33513054Y-56257271D03*
X30185654Y-56257271D03*
X33513054Y-75307352D03*
X30185654Y-75307352D03*
X33513054Y-94357433D03*
X30185654Y-94357433D03*
X33513054Y-113407515D03*
X30185654Y-113407515D03*
X33513054Y-132457596D03*
X30185654Y-132457596D03*
X52563135Y-56257271D03*
X49235735Y-56257271D03*
X52563135Y-75307352D03*
X49235735Y-75307352D03*
X52563135Y-94357433D03*
X49235735Y-94357433D03*
X52563135Y-113407515D03*
X49235735Y-113407515D03*
X52563135Y-132457596D03*
X49235735Y-132457596D03*
X71613217Y-56257271D03*
X68285817Y-56257271D03*
X71613217Y-75307352D03*
X68285817Y-75307352D03*
X71613217Y-94357433D03*
X68285817Y-94357433D03*
X71613217Y-113407515D03*
X68285817Y-113407515D03*
X71613217Y-132457596D03*
X68285817Y-132457596D03*
X90663298Y-56257271D03*
X87335898Y-56257271D03*
X90663298Y-75307352D03*
X87335898Y-75307352D03*
X90663298Y-94357433D03*
X87335898Y-94357433D03*
X90663298Y-113407515D03*
X87335898Y-113407515D03*
X90663298Y-132457596D03*
X87335898Y-132457596D03*
X109713379Y-56257271D03*
X106385979Y-56257271D03*
X109713379Y-75307352D03*
X106385979Y-75307352D03*
X109713379Y-94357433D03*
X106385979Y-94357433D03*
X109713379Y-113407515D03*
X106385979Y-113407515D03*
X109713379Y-132457596D03*
X106385979Y-132457596D03*
X128763461Y-56257271D03*
X125436061Y-56257271D03*
X128763461Y-75307352D03*
X125436061Y-75307352D03*
X128763461Y-94357433D03*
X125436061Y-94357433D03*
X128763461Y-113407515D03*
X125436061Y-113407515D03*
X128763461Y-132457596D03*
X125436061Y-132457596D03*
D14*
X70059849Y-28335755D03*
X70059849Y-26485755D03*
X71609849Y-26485755D03*
X71609849Y-28335755D03*
D15*
X56669840Y-14359000D03*
X56669840Y-14859000D03*
X56669840Y-15359000D03*
X55059840Y-15359000D03*
X55059840Y-14859000D03*
X55059840Y-14359000D03*
D16*
X84795560Y-20270600D03*
X85595560Y-20270600D03*
X86395560Y-20270600D03*
X87195560Y-20270600D03*
X87995560Y-20270600D03*
X122860000Y-20296000D03*
X123660000Y-20296000D03*
X124460000Y-20296000D03*
X125260000Y-20296000D03*
X126060000Y-20296000D03*
D17*
X66532789Y-28302295D03*
X65032789Y-28302295D03*
X66532789Y-26816395D03*
X65032789Y-26816395D03*
D18*
X37550689Y-19765355D03*
X37550689Y-23763315D03*
D19*
X65627149Y-15226375D03*
X67127149Y-15226375D03*
X65627149Y-17306635D03*
X67127149Y-17306635D03*
X46904809Y-19981255D03*
X48404809Y-19981255D03*
M02*
